<svg width="17" height="17" viewBox="0 0 17 17" fill="none" xmlns="http://www.w3.org/2000/svg">
<g opacity="0.75">
<path d="M1.28808 1.09326V0.621094H0.815918V1.09326H1.28808ZM8.5084 8.98216C8.59706 9.07082 8.71731 9.12063 8.8427 9.12063C8.96808 9.12063 9.08833 9.07082 9.17699 8.98216C9.26565 8.8935 9.31545 8.77325 9.31545 8.64787C9.31545 8.52249 9.26565 8.40224 9.17699 8.31358L8.5084 8.98216ZM1.76024 6.75922V1.09326H0.815918V6.75922H1.76024ZM1.28808 1.56542H6.95404V0.621094H1.28808V1.56542ZM0.95379 1.42755L8.5084 8.98216L9.17699 8.31358L1.62237 0.758965L0.95379 1.42755Z" fill="white"/>
<path d="M1.28808 16.2024V16.6746H0.815918V16.2024H1.28808ZM8.5084 8.31352C8.59706 8.22486 8.71731 8.17505 8.8427 8.17505C8.96808 8.17505 9.08833 8.22486 9.17699 8.31352C9.26565 8.40218 9.31545 8.52242 9.31545 8.64781C9.31545 8.77319 9.26565 8.89344 9.17699 8.9821L8.5084 8.31352ZM1.76024 10.5365V16.2024H0.815918V10.5365H1.76024ZM1.28808 15.7303H6.95404V16.6746H1.28808V15.7303ZM0.95379 15.8681L8.5084 8.31352L9.17699 8.9821L1.62237 16.5367L0.95379 15.8681Z" fill="white"/>
<path d="M16.399 1.09326V0.621094H16.8711V1.09326H16.399ZM9.17863 8.98216C9.08997 9.07082 8.96973 9.12063 8.84434 9.12063C8.71896 9.12063 8.59871 9.07082 8.51005 8.98216C8.42139 8.8935 8.37158 8.77325 8.37158 8.64787C8.37158 8.52249 8.42139 8.40224 8.51005 8.31358L9.17863 8.98216ZM15.9268 6.75922V1.09326H16.8711V6.75922H15.9268ZM16.399 1.56542H10.733V0.621094H16.399V1.56542ZM16.7332 1.42755L9.17863 8.98216L8.51005 8.31358L16.0647 0.758965L16.7332 1.42755Z" fill="white"/>
<path d="M16.399 16.2024V16.6746H16.8711V16.2024H16.399ZM9.17863 8.31352C9.08997 8.22486 8.96973 8.17505 8.84434 8.17505C8.71896 8.17505 8.59871 8.22486 8.51005 8.31352C8.42139 8.40218 8.37158 8.52242 8.37158 8.64781C8.37158 8.77319 8.42139 8.89344 8.51005 8.9821L9.17863 8.31352ZM15.9268 10.5365V16.2024H16.8711V10.5365H15.9268ZM16.399 15.7303H10.733V16.6746H16.399V15.7303ZM16.7332 15.8681L9.17863 8.31352L8.51005 8.9821L16.0647 16.5367L16.7332 15.8681Z" fill="white"/>
</g>
</svg>
