<svg width="19" height="20" viewBox="0 0 19 20" fill="none" xmlns="http://www.w3.org/2000/svg">
<g opacity="0.75">
<path d="M0.556804 1.06044V0.501709H-0.00192261V1.06044H0.556804ZM9.10085 10.3956C9.20577 10.5006 9.34806 10.5595 9.49643 10.5595C9.6448 10.5595 9.7871 10.5006 9.89201 10.3956C9.99692 10.2907 10.0559 10.1484 10.0559 10.0001C10.0559 9.85169 9.99692 9.7094 9.89201 9.60448L9.10085 10.3956ZM1.11553 7.76516V1.06044H-0.00192261V7.76516H1.11553ZM0.556804 1.61916H7.26152V0.501709H0.556804V1.61916ZM0.161225 1.45601L9.10085 10.3956L9.89201 9.60448L0.952383 0.664857L0.161225 1.45601Z" fill="white"/>
<path d="M0.556804 18.9395V19.4982H-0.00192261V18.9395H0.556804ZM9.10085 9.60428C9.20577 9.49937 9.34806 9.44043 9.49643 9.44043C9.6448 9.44043 9.7871 9.49937 9.89201 9.60428C9.99692 9.7092 10.0559 9.85149 10.0559 9.99986C10.0559 10.1482 9.99692 10.2905 9.89201 10.3954L9.10085 9.60428ZM1.11553 12.2348V18.9395H-0.00192261V12.2348H1.11553ZM0.556804 18.3808H7.26152V19.4982H0.556804V18.3808ZM0.161225 18.5439L9.10085 9.60428L9.89201 10.3954L0.952383 19.3351L0.161225 18.5439Z" fill="white"/>
<path d="M18.4374 1.06044V0.501709H18.9961V1.06044H18.4374ZM9.8933 10.3956C9.78839 10.5006 9.6461 10.5595 9.49773 10.5595C9.34935 10.5595 9.20706 10.5006 9.10215 10.3956C8.99723 10.2907 8.93829 10.1484 8.93829 10.0001C8.93829 9.85169 8.99723 9.7094 9.10215 9.60448L9.8933 10.3956ZM17.8786 7.76516V1.06044H18.9961V7.76516H17.8786ZM18.4374 1.61916H11.7326V0.501709H18.4374V1.61916ZM18.8329 1.45601L9.8933 10.3956L9.10215 9.60448L18.0418 0.664857L18.8329 1.45601Z" fill="white"/>
<path d="M18.4374 18.9395V19.4982H18.9961V18.9395H18.4374ZM9.8933 9.60428C9.78839 9.49937 9.6461 9.44043 9.49773 9.44043C9.34935 9.44043 9.20706 9.49937 9.10215 9.60428C8.99723 9.7092 8.93829 9.85149 8.93829 9.99986C8.93829 10.1482 8.99723 10.2905 9.10215 10.3954L9.8933 9.60428ZM17.8786 12.2348V18.9395H18.9961V12.2348H17.8786ZM18.4374 18.3808H11.7326V19.4982H18.4374V18.3808ZM18.8329 18.5439L9.8933 9.60428L9.10215 10.3954L18.0418 19.3351L18.8329 18.5439Z" fill="white"/>
</g>
</svg>
