<svg width="14" height="13" viewBox="0 0 14 13" fill="none" xmlns="http://www.w3.org/2000/svg">
<path d="M5.86792 1.13274C6.40815 0.155787 7.81236 0.155787 8.35258 1.13274L13.2411 9.96883C13.7649 10.9155 13.0802 12.0767 11.9985 12.0767H2.22267C1.14032 12.0767 0.455575 10.9155 0.979391 9.96883L5.86792 1.13274Z" fill="url(#paint0_linear_1092_1059)"/>
<path d="M7.74061 9.55211C7.74328 9.46768 7.72896 9.38357 7.6985 9.30478C7.66803 9.22599 7.62204 9.15413 7.56326 9.09346C7.50448 9.03279 7.43411 8.98455 7.35632 8.95161C7.27854 8.91867 7.19493 8.90169 7.11045 8.90169C7.02598 8.90169 6.94237 8.91867 6.86458 8.95161C6.7868 8.98455 6.71642 9.03279 6.65765 9.09346C6.59887 9.15413 6.55288 9.22599 6.52241 9.30478C6.49195 9.38357 6.47762 9.46768 6.4803 9.55211C6.48548 9.71579 6.55414 9.87102 6.67175 9.98497C6.78936 10.0989 6.9467 10.1626 7.11045 10.1626C7.27421 10.1626 7.43155 10.0989 7.54916 9.98497C7.66677 9.87102 7.73543 9.71579 7.74061 9.55211ZM7.57715 4.59668C7.5608 4.47782 7.49992 4.36961 7.40682 4.29392C7.31373 4.21824 7.19536 4.18073 7.07567 4.18899C6.95597 4.19725 6.84388 4.25065 6.76206 4.3384C6.68024 4.42615 6.63479 4.5417 6.63492 4.66168L6.63744 7.50228L6.64186 7.56666C6.65821 7.68551 6.71909 7.79373 6.81219 7.86941C6.90529 7.9451 7.02365 7.9826 7.14335 7.97434C7.26304 7.96609 7.37513 7.91268 7.45696 7.82493C7.53878 7.73718 7.58422 7.62163 7.5841 7.50165L7.58157 4.66042L7.57715 4.59668Z" fill="url(#paint1_linear_1092_1059)"/>
<defs>
<linearGradient id="paint0_linear_1092_1059" x1="2.77236" y1="-1.4245" x2="10.0894" y2="13.64" gradientUnits="userSpaceOnUse">
<stop stop-color="#FFCD0F"/>
<stop offset="1" stop-color="#FE8401"/>
</linearGradient>
<linearGradient id="paint1_linear_1092_1059" x1="5.43014" y1="4.18772" x2="8.2171" y2="10.4388" gradientUnits="userSpaceOnUse">
<stop stop-color="#4A4A4A"/>
<stop offset="1" stop-color="#212121"/>
</linearGradient>
</defs>
</svg>
