<svg width="18" height="17" viewBox="0 0 18 17" fill="none" xmlns="http://www.w3.org/2000/svg">
<path d="M7.0404 1.69515C7.79071 0.338272 9.741 0.338272 10.4913 1.69515L17.2809 13.9675C18.0085 15.2823 17.0574 16.8951 15.555 16.8951H1.97754C0.474285 16.8951 -0.476754 15.2823 0.250769 13.9675L7.0404 1.69515Z" fill="url(#paint0_linear_860_3776)"/>
<path d="M9.64101 13.3887C9.64472 13.2714 9.62483 13.1546 9.58252 13.0452C9.54021 12.9358 9.47633 12.8359 9.39469 12.7517C9.31306 12.6674 9.21532 12.6004 9.10728 12.5547C8.99925 12.5089 8.88312 12.4853 8.76579 12.4853C8.64847 12.4853 8.53234 12.5089 8.42431 12.5547C8.31627 12.6004 8.21853 12.6674 8.13689 12.7517C8.05526 12.8359 7.99138 12.9358 7.94907 13.0452C7.90676 13.1546 7.88686 13.2714 7.89058 13.3887C7.89777 13.616 7.99313 13.8316 8.15648 13.9899C8.31983 14.1482 8.53835 14.2366 8.76579 14.2366C8.99324 14.2366 9.21175 14.1482 9.3751 13.9899C9.53845 13.8316 9.63382 13.616 9.64101 13.3887ZM9.41399 6.50615C9.39128 6.34107 9.30672 6.19077 9.17742 6.08565C9.04812 5.98054 8.88372 5.92845 8.71748 5.93991C8.55124 5.95138 8.39555 6.02556 8.28191 6.14743C8.16827 6.26931 8.10515 6.4298 8.10533 6.59643L8.10883 10.5417L8.11497 10.6311C8.13768 10.7962 8.22224 10.9465 8.35154 11.0516C8.48084 11.1567 8.64524 11.2088 8.81148 11.1974C8.97772 11.1859 9.13341 11.1117 9.24705 10.9898C9.36069 10.868 9.4238 10.7075 9.42363 10.5408L9.42013 6.59468L9.41399 6.50615Z" fill="url(#paint1_linear_860_3776)"/>
<defs>
<linearGradient id="paint0_linear_860_3776" x1="2.741" y1="-1.85657" x2="12.9035" y2="19.0663" gradientUnits="userSpaceOnUse">
<stop stop-color="#FFCD0F"/>
<stop offset="1" stop-color="#FE8401"/>
</linearGradient>
<linearGradient id="paint1_linear_860_3776" x1="6.43202" y1="5.93816" x2="10.3028" y2="14.6202" gradientUnits="userSpaceOnUse">
<stop stop-color="#4A4A4A"/>
<stop offset="1" stop-color="#212121"/>
</linearGradient>
</defs>
</svg>
