<svg width="17" height="16" viewBox="0 0 17 16" fill="none" xmlns="http://www.w3.org/2000/svg">
<g clip-path="url(#clip0_1082_159)">
<path d="M15.3483 5.84263L14.0046 4.49897C13.8962 4.39203 13.7517 4.32958 13.5995 4.32394C13.4473 4.31831 13.2985 4.36989 13.1825 4.46852C13.0034 4.62099 12.7735 4.70059 12.5385 4.69157C12.3034 4.68255 12.0804 4.58555 11.9135 4.41981C11.7478 4.25292 11.6509 4.0299 11.6418 3.79492C11.6328 3.55995 11.7124 3.33015 11.8647 3.15105C11.9634 3.03503 12.015 2.88627 12.0093 2.73409C12.0037 2.58191 11.9412 2.43737 11.8343 2.32896L10.4894 0.983786C10.3758 0.87035 10.2218 0.806641 10.0612 0.806641C9.9006 0.806641 9.74658 0.87035 9.63293 0.983786L7.49094 3.12548C7.35872 3.25822 7.25899 3.41974 7.19955 3.59741C7.18798 3.63158 7.1687 3.66262 7.1432 3.68812C7.11769 3.71362 7.08665 3.73291 7.05249 3.74448C6.87474 3.8039 6.71319 3.90375 6.58055 4.03617L1.08779 9.52893C0.974354 9.64258 0.910645 9.7966 0.910645 9.95717C0.910645 10.1178 0.974354 10.2718 1.08779 10.3854L2.43297 11.7291C2.54137 11.836 2.68592 11.8985 2.83809 11.9041C2.99027 11.9097 3.13903 11.8582 3.25506 11.7595C3.43375 11.6058 3.66392 11.5253 3.89945 11.5342C4.13499 11.543 4.35848 11.6406 4.52514 11.8072C4.6918 11.9739 4.78933 12.1974 4.79817 12.4329C4.80702 12.6684 4.72653 12.8986 4.57283 13.0773C4.4742 13.1933 4.42261 13.3421 4.42825 13.4943C4.43389 13.6464 4.49633 13.791 4.60328 13.8994L5.94693 15.243C6.06059 15.3565 6.2146 15.4202 6.37518 15.4202C6.53576 15.4202 6.68977 15.3565 6.80343 15.243L12.2962 9.75028C12.4286 9.61773 12.5284 9.45629 12.5879 9.27865C12.5994 9.24437 12.6187 9.21323 12.6443 9.18766C12.6698 9.1621 12.701 9.1428 12.7352 9.13128C12.9128 9.07186 13.0743 8.97213 13.2069 8.8399L15.3486 6.6979C15.4616 6.58426 15.525 6.43048 15.525 6.2702C15.5249 6.10992 15.4614 5.95619 15.3483 5.84263ZM8.39493 4.93985C8.34969 4.9851 8.29598 5.021 8.23687 5.04549C8.17775 5.06997 8.1144 5.08258 8.05041 5.08258C7.98643 5.08258 7.92307 5.06997 7.86396 5.04549C7.80484 5.021 7.75114 4.9851 7.7059 4.93985L7.35544 4.5894C7.26631 4.49758 7.21688 4.37437 7.21784 4.2464C7.21881 4.11844 7.27008 3.99599 7.36059 3.90552C7.4511 3.81505 7.57357 3.76383 7.70154 3.76292C7.82951 3.76201 7.95269 3.8115 8.04448 3.90067L8.39493 4.25082C8.44018 4.29606 8.47607 4.34977 8.50056 4.40888C8.52505 4.46799 8.53765 4.53135 8.53765 4.59534C8.53765 4.65932 8.52505 4.72268 8.50056 4.78179C8.47607 4.8409 8.44018 4.89461 8.39493 4.93985ZM9.73463 6.27955C9.64327 6.37084 9.51941 6.42212 9.39026 6.42212C9.26111 6.42212 9.13725 6.37084 9.0459 6.27955L8.71098 5.94463C8.6196 5.85326 8.56827 5.72933 8.56827 5.60011C8.56827 5.47089 8.6196 5.34697 8.71098 5.2556C8.80235 5.16422 8.92627 5.11289 9.05549 5.11289C9.18471 5.11289 9.30863 5.16422 9.40001 5.2556L9.73493 5.59052C9.78034 5.63576 9.81637 5.68951 9.84097 5.74869C9.86556 5.80788 9.87824 5.87134 9.87827 5.93543C9.87829 5.99952 9.86567 6.06299 9.84113 6.1222C9.81659 6.18141 9.7806 6.23519 9.73523 6.28046L9.73463 6.27955ZM11.0743 7.61925C11.0291 7.6645 10.9754 7.70039 10.9163 7.72488C10.8572 7.74937 10.7938 7.76197 10.7298 7.76197C10.6658 7.76197 10.6025 7.74937 10.5434 7.72488C10.4842 7.70039 10.4305 7.6645 10.3853 7.61925L10.0504 7.28432C9.96123 7.1925 9.91181 7.0693 9.91277 6.94133C9.91373 6.81336 9.96501 6.69091 10.0555 6.60044C10.146 6.50998 10.2685 6.45875 10.3965 6.45785C10.5244 6.45694 10.6476 6.50642 10.7394 6.5956L11.0743 6.93052C11.1199 6.97568 11.156 7.02939 11.1807 7.08856C11.2055 7.14773 11.2183 7.2112 11.2184 7.27533C11.2186 7.33946 11.206 7.40299 11.1816 7.46227C11.1571 7.52154 11.1212 7.57541 11.0758 7.62077L11.0743 7.61925ZM12.4271 8.97539C12.3819 9.02064 12.3282 9.05653 12.2691 9.08102C12.2099 9.10551 12.1466 9.11811 12.0826 9.11811C12.0186 9.11811 11.9553 9.10551 11.8961 9.08102C11.837 9.05653 11.7833 9.02064 11.7381 8.97539L11.3898 8.62524C11.3436 8.58014 11.3068 8.5263 11.2816 8.46686C11.2564 8.40741 11.2432 8.34355 11.2429 8.27899C11.2426 8.21442 11.2551 8.15044 11.2798 8.09076C11.3044 8.03108 11.3407 7.97689 11.3864 7.93135C11.4322 7.8858 11.4866 7.84981 11.5464 7.82546C11.6062 7.80112 11.6702 7.7889 11.7348 7.78952C11.7993 7.79014 11.8631 7.80359 11.9225 7.82909C11.9818 7.85459 12.0354 7.89162 12.0803 7.93804L12.4289 8.28788C12.4742 8.33314 12.51 8.38686 12.5345 8.44599C12.559 8.50511 12.5715 8.56847 12.5715 8.63246C12.5715 8.69644 12.5589 8.75979 12.5343 8.8189C12.5098 8.878 12.4739 8.93169 12.4286 8.97691L12.4271 8.97539Z" fill="white"/>
</g>
<defs>
<clipPath id="clip0_1082_159">
<rect width="15.5892" height="15.5892" fill="white" transform="translate(0.42334 0.319336)"/>
</clipPath>
</defs>
</svg>
