<svg width="17" height="17" viewBox="0 0 17 17" fill="none" xmlns="http://www.w3.org/2000/svg">
<g clip-path="url(#clip0_828_168)">
<path d="M16.2754 6.02298L14.8102 4.55773C14.692 4.4411 14.5343 4.373 14.3684 4.36686C14.2025 4.36071 14.0402 4.41696 13.9137 4.52452C13.7184 4.69078 13.4677 4.7776 13.2114 4.76776C12.9551 4.75792 12.7118 4.65214 12.5298 4.4714C12.3491 4.28941 12.2434 4.04621 12.2336 3.78997C12.2238 3.53372 12.3105 3.28313 12.4767 3.08782C12.5842 2.9613 12.6405 2.79908 12.6343 2.63313C12.6282 2.46718 12.5601 2.30956 12.4435 2.19134L10.9769 0.724426C10.8529 0.600725 10.685 0.53125 10.5099 0.53125C10.3348 0.53125 10.1668 0.600725 10.0429 0.724426L7.70704 3.05993C7.56286 3.20469 7.45411 3.38083 7.38929 3.57458C7.37668 3.61184 7.35565 3.64568 7.32783 3.6735C7.30002 3.70131 7.26617 3.72234 7.22892 3.73495C7.03508 3.79976 6.85891 3.90864 6.71427 4.05304L0.724426 10.0429C0.600725 10.1668 0.53125 10.3348 0.53125 10.5099C0.53125 10.685 0.600725 10.8529 0.724426 10.9769L2.19134 12.4421C2.30956 12.5588 2.46718 12.6269 2.63313 12.633C2.79908 12.6392 2.9613 12.5829 3.08782 12.4753C3.28269 12.3077 3.53369 12.22 3.79054 12.2296C4.04739 12.2393 4.2911 12.3456 4.47285 12.5274C4.6546 12.7091 4.76095 12.9528 4.77059 13.2097C4.78024 13.4665 4.69246 13.7175 4.52486 13.9124C4.4173 14.0389 4.36104 14.2011 4.36719 14.3671C4.37334 14.533 4.44144 14.6906 4.55806 14.8089L6.02331 16.2741C6.14725 16.3978 6.31521 16.4673 6.49032 16.4673C6.66542 16.4673 6.83338 16.3978 6.95732 16.2741L12.9472 10.2843C13.0915 10.1397 13.2004 9.96367 13.2652 9.76995C13.2778 9.73258 13.2989 9.69862 13.3267 9.67074C13.3546 9.64286 13.3886 9.62181 13.4259 9.60925C13.6196 9.54445 13.7957 9.4357 13.9403 9.2915L16.2758 6.95566C16.399 6.83173 16.4682 6.66403 16.4681 6.48925C16.4681 6.31447 16.3988 6.14682 16.2754 6.02298ZM8.69284 5.03851C8.64351 5.08785 8.58494 5.12699 8.52048 5.1537C8.45602 5.18041 8.38693 5.19415 8.31715 5.19415C8.24738 5.19415 8.17828 5.18041 8.11382 5.1537C8.04936 5.12699 7.99079 5.08785 7.94146 5.03851L7.55929 4.65634C7.46209 4.55621 7.40819 4.42185 7.40924 4.2823C7.41029 4.14276 7.4662 4.00923 7.5649 3.91057C7.6636 3.81191 7.79716 3.75606 7.93671 3.75507C8.07626 3.75408 8.21059 3.80804 8.31068 3.90529L8.69284 4.28712C8.74219 4.33645 8.78133 4.39502 8.80804 4.45949C8.83474 4.52395 8.84849 4.59304 8.84849 4.66282C8.84849 4.73259 8.83474 4.80168 8.80804 4.86614C8.78133 4.93061 8.74219 4.98918 8.69284 5.03851ZM10.1538 6.49945C10.0542 6.599 9.91909 6.65492 9.77825 6.65492C9.63742 6.65492 9.50235 6.599 9.40273 6.49945L9.03749 6.13421C8.93785 6.03457 8.88188 5.89943 8.88188 5.75852C8.88188 5.61761 8.93785 5.48246 9.03749 5.38282C9.13713 5.28318 9.27227 5.22721 9.41319 5.22721C9.5541 5.22721 9.68924 5.28318 9.78888 5.38282L10.1541 5.74806C10.2036 5.79739 10.2429 5.856 10.2697 5.92055C10.2966 5.98509 10.3104 6.05429 10.3104 6.12418C10.3105 6.19408 10.2967 6.26329 10.2699 6.32785C10.2432 6.39242 10.2039 6.45107 10.1544 6.50044L10.1538 6.49945ZM11.6147 7.96038C11.5654 8.00973 11.5068 8.04887 11.4424 8.07557C11.3779 8.10228 11.3088 8.11603 11.239 8.11603C11.1693 8.11603 11.1002 8.10228 11.0357 8.07557C10.9712 8.04887 10.9127 8.00973 10.8633 7.96038L10.4981 7.59515C10.4009 7.49502 10.347 7.36066 10.348 7.22111C10.3491 7.08157 10.405 6.94804 10.5037 6.84938C10.6024 6.75072 10.736 6.69486 10.8755 6.69388C11.0151 6.69289 11.1494 6.74685 11.2495 6.84409L11.6147 7.20933C11.6644 7.25858 11.7038 7.31714 11.7308 7.38167C11.7577 7.44619 11.7717 7.51541 11.7719 7.58534C11.772 7.65527 11.7584 7.72455 11.7317 7.78919C11.705 7.85384 11.6658 7.91258 11.6164 7.96204L11.6147 7.96038ZM13.0899 9.43925C13.0406 9.4886 12.982 9.52774 12.9176 9.55444C12.8531 9.58115 12.784 9.59489 12.7142 9.59489C12.6445 9.59489 12.5754 9.58115 12.5109 9.55444C12.4464 9.52774 12.3879 9.4886 12.3385 9.43925L11.9587 9.05742C11.9083 9.00823 11.8682 8.94952 11.8407 8.8847C11.8132 8.81987 11.7989 8.75024 11.7986 8.67983C11.7982 8.60942 11.8119 8.53965 11.8388 8.47457C11.8656 8.40948 11.9052 8.35039 11.9551 8.30073C12.005 8.25106 12.0643 8.21181 12.1295 8.18526C12.1947 8.15871 12.2645 8.14539 12.3349 8.14606C12.4054 8.14674 12.4749 8.16141 12.5396 8.18921C12.6043 8.21702 12.6628 8.2574 12.7118 8.30802L13.0919 8.68952C13.1412 8.73888 13.1804 8.79747 13.207 8.86194C13.2337 8.92641 13.2474 8.99551 13.2474 9.06529C13.2474 9.13506 13.2336 9.20415 13.2069 9.2686C13.1801 9.33305 13.141 9.3916 13.0916 9.44091L13.0899 9.43925Z" fill="white"/>
</g>
<defs>
<clipPath id="clip0_828_168">
<rect width="17" height="17" fill="white"/>
</clipPath>
</defs>
</svg>
