<svg width="18" height="21" viewBox="0 0 18 21" fill="none" xmlns="http://www.w3.org/2000/svg">
<path d="M17.4285 9.87176C17.4339 10.2628 17.3481 10.6502 17.1772 11.0061C16.9978 11.3827 16.7226 11.7094 16.3757 11.959L4.83121 20.4782C4.4248 20.772 3.94013 20.9527 3.43151 21H3.15636C2.7405 21.0001 2.33053 20.9068 1.96004 20.7278C1.51047 20.5184 1.13002 20.1963 0.860047 19.7963C0.59007 19.3963 0.440897 18.9338 0.428744 18.459V2.57771C0.426265 2.10892 0.563084 1.64895 0.82353 1.25049C1.07557 0.852049 1.4366 0.525696 1.86836 0.306017C2.30012 0.0863386 2.78651 -0.0184804 3.27599 0.00267C3.76887 0.0253576 4.2474 0.170558 4.66372 0.42239L16.2202 7.72778C16.5719 7.95919 16.8662 8.26094 17.0815 8.6126C17.3088 8.99829 17.4285 9.43048 17.4285 9.87176Z" fill="white"/>
</svg>
