<svg width="26" height="25" viewBox="0 0 26 25" fill="none" xmlns="http://www.w3.org/2000/svg">
<path fill-rule="evenodd" clip-rule="evenodd" d="M0.600098 12.5C0.600098 5.59625 6.19635 0 13.1001 0C20.0038 0 25.6001 5.59625 25.6001 12.5C25.6001 19.4037 20.0038 25 13.1001 25C6.19635 25 0.600098 19.4037 0.600098 12.5ZM13.1001 7.5C13.1001 7.16848 12.9684 6.85054 12.734 6.61612C12.4996 6.3817 12.1816 6.25 11.8501 6.25C11.5186 6.25 11.2006 6.3817 10.9662 6.61612C10.7318 6.85054 10.6001 7.16848 10.6001 7.5V13.75C10.6001 14.0815 10.7318 14.3995 10.9662 14.6339C11.2006 14.8683 11.5186 15 11.8501 15H18.1001C18.4316 15 18.7496 14.8683 18.984 14.6339C19.2184 14.3995 19.3501 14.0815 19.3501 13.75C19.3501 13.4185 19.2184 13.1005 18.984 12.8661C18.7496 12.6317 18.4316 12.5 18.1001 12.5H13.1001V7.5Z" fill="white"/>
</svg>
