<svg width="12" height="14" viewBox="0 0 12 14" fill="none" xmlns="http://www.w3.org/2000/svg">
<path d="M5.37987 1.94575H3.63928C3.23927 1.94575 2.84318 2.01744 2.47362 2.15674C2.10406 2.29604 1.76827 2.50022 1.48542 2.75761C1.20257 3.015 0.978203 3.32057 0.825126 3.65687C0.672049 3.99317 0.593262 4.35362 0.593262 4.71763C0.593262 5.08163 0.672049 5.44208 0.825126 5.77838C0.978203 6.11468 1.20257 6.42025 1.48542 6.67764C1.76827 6.93503 2.10406 7.13921 2.47362 7.27851C2.84318 7.41781 3.23927 7.4895 3.63928 7.4895H5.37987V9.8654H1.46355V11.4493H5.37987V13.0333H7.12045V11.4493H8.86103C9.66889 11.4493 10.4437 11.1573 11.0149 10.6375C11.5861 10.1176 11.9071 9.4126 11.9071 8.67745C11.9071 7.9423 11.5861 7.23727 11.0149 6.71744C10.4437 6.19761 9.66889 5.90557 8.86103 5.90557H7.12045V3.52968H11.0368V1.94575H7.12045V0.361816H5.37987V1.94575ZM7.12045 7.4895H8.86103C9.20726 7.4895 9.5393 7.61466 9.78412 7.83745C10.0289 8.06023 10.1665 8.36239 10.1665 8.67745C10.1665 8.99252 10.0289 9.29467 9.78412 9.51746C9.5393 9.74024 9.20726 9.8654 8.86103 9.8654H7.12045V7.4895ZM5.37987 5.90557H3.63928C3.46785 5.90557 3.2981 5.87485 3.13971 5.81515C2.98133 5.75545 2.83742 5.66794 2.7162 5.55763C2.59498 5.44732 2.49882 5.31636 2.43322 5.17223C2.36761 5.02811 2.33384 4.87363 2.33384 4.71763C2.33384 4.56162 2.36761 4.40715 2.43322 4.26302C2.49882 4.11889 2.59498 3.98793 2.7162 3.87762C2.83742 3.76731 2.98133 3.6798 3.13971 3.6201C3.2981 3.5604 3.46785 3.52968 3.63928 3.52968H5.37987V5.90557Z" fill="white"/>
</svg>
