<svg width="20" height="14" viewBox="0 0 20 14" fill="none" xmlns="http://www.w3.org/2000/svg">
<path d="M3 0.5C2.27065 0.5 1.57118 0.789731 1.05546 1.30546C0.539731 1.82118 0.25 2.52065 0.25 3.25V10.75C0.25 11.4793 0.539731 12.1788 1.05546 12.6945C1.57118 13.2103 2.27065 13.5 3 13.5H11.5C12.2293 13.5 12.9288 13.2103 13.4445 12.6945C13.9603 12.1788 14.25 11.4793 14.25 10.75V9.156L17.669 12.201C18.474 12.918 19.75 12.346 19.75 11.267V2.365C19.75 1.285 18.474 0.714 17.669 1.431L14.25 4.476V3.25C14.25 2.52065 13.9603 1.82118 13.4445 1.30546C12.9288 0.789731 12.2293 0.5 11.5 0.5H3Z" fill="white"/>
</svg>
