<svg width="17" height="17" viewBox="0 0 17 17" fill="none" xmlns="http://www.w3.org/2000/svg">
<path d="M8.5 0C13.1945 0 17 3.80545 17 8.5C17 13.1945 13.1945 17 8.5 17H1.7C1.24913 17 0.81673 16.8209 0.497918 16.5021C0.179107 16.1833 0 15.7509 0 15.3V8.5C0 3.80545 3.80545 0 8.5 0ZM8.5 10.2H5.95C5.72457 10.2 5.50837 10.2896 5.34896 10.449C5.18955 10.6084 5.1 10.8246 5.1 11.05C5.1 11.2754 5.18955 11.4916 5.34896 11.651C5.50837 11.8104 5.72457 11.9 5.95 11.9H8.5C8.72543 11.9 8.94164 11.8104 9.10104 11.651C9.26045 11.4916 9.35 11.2754 9.35 11.05C9.35 10.8246 9.26045 10.6084 9.10104 10.449C8.94164 10.2896 8.72543 10.2 8.5 10.2ZM11.05 6.8H5.95C5.73335 6.80024 5.52497 6.8832 5.36744 7.03192C5.2099 7.18064 5.1151 7.38391 5.1024 7.60019C5.08971 7.81646 5.16007 8.02942 5.29912 8.19556C5.43818 8.36169 5.63542 8.46846 5.85055 8.49405L5.95 8.5H11.05C11.2666 8.49976 11.475 8.4168 11.6326 8.26808C11.7901 8.11936 11.8849 7.91609 11.8976 7.69981C11.9103 7.48354 11.8399 7.27058 11.7009 7.10444C11.5618 6.93831 11.3646 6.83154 11.1495 6.80595L11.05 6.8Z" fill="white"/>
</svg>
