<svg width="16" height="14" viewBox="0 0 16 14" fill="none" xmlns="http://www.w3.org/2000/svg">
<path fill-rule="evenodd" clip-rule="evenodd" d="M10.057 0.229563C11 -0.37398 12.2568 0.283071 12.2568 1.37921V12.6207C12.2568 13.7176 11 14.3739 10.057 13.7703L5.19216 10.6582C5.15925 10.6369 5.12064 10.6254 5.08108 10.6251H2.72973C2.13837 10.6251 1.57123 10.3971 1.15307 9.99133C0.734917 9.58551 0.5 9.0351 0.5 8.46119V5.53869C0.5 4.96478 0.734917 4.41437 1.15307 4.00855C1.57123 3.60274 2.13837 3.37475 2.72973 3.37475H5.08108C5.12083 3.37488 5.15974 3.36366 5.19297 3.34249L10.057 0.229563ZM14.8919 4.04911C15.0532 4.04911 15.2078 4.11129 15.3219 4.22197C15.4359 4.33265 15.5 4.48276 15.5 4.63928V9.3606C15.5 9.51712 15.4359 9.66723 15.3219 9.77791C15.2078 9.88859 15.0532 9.95077 14.8919 9.95077C14.7306 9.95077 14.5759 9.88859 14.4619 9.77791C14.3479 9.66723 14.2838 9.51712 14.2838 9.3606V4.63928C14.2838 4.48276 14.3479 4.33265 14.4619 4.22197C14.5759 4.11129 14.7306 4.04911 14.8919 4.04911Z" fill="#A7A5A5"/>
</svg>
