<svg width="14" height="15" viewBox="0 0 14 15" fill="none" xmlns="http://www.w3.org/2000/svg">
<path d="M11.7734 4.28529V12.7465C11.7734 13.062 11.8802 13.3266 12.094 13.5403C12.3078 13.7541 12.572 13.8606 12.8867 13.8598C13.2014 13.8591 13.4656 13.7522 13.6794 13.5392C13.8931 13.3262 14 13.062 14 12.7465V1.61332C14 1.29788 13.8931 1.03365 13.6794 0.820636C13.4656 0.607621 13.2014 0.500742 12.8867 0.5H1.75348C1.43804 0.5 1.17344 0.606879 0.959683 0.820636C0.745926 1.03439 0.639418 1.29862 0.64016 1.61332C0.640903 1.92802 0.747781 2.19262 0.960796 2.40712C1.17381 2.62162 1.43804 2.72812 1.75348 2.72664H10.2147L0.306165 12.6352C0.102057 12.8393 0 13.0991 0 13.4145C0 13.73 0.102057 13.9897 0.306165 14.1938C0.510274 14.3979 0.770047 14.5 1.08549 14.5C1.40093 14.5 1.6607 14.3979 1.86481 14.1938L11.7734 4.28529Z" fill="white"/>
</svg>
