<svg width="14" height="9" viewBox="0 0 14 9" fill="none" xmlns="http://www.w3.org/2000/svg">
<path d="M2.18351 0.0599365C1.70541 0.0599365 1.2469 0.249857 0.908842 0.587919C0.57078 0.925981 0.380859 1.38449 0.380859 1.86258V6.77889C0.380859 7.25698 0.57078 7.71549 0.908842 8.05355C1.2469 8.39161 1.70541 8.58153 2.18351 8.58153H7.75532C8.23341 8.58153 8.69192 8.39161 9.02998 8.05355C9.36804 7.71549 9.55797 7.25698 9.55797 6.77889V5.73401L11.7991 7.73003C12.3268 8.20003 13.1633 7.82508 13.1633 7.11779V1.28246C13.1633 0.57451 12.3268 0.200215 11.7991 0.670214L9.55797 2.66623V1.86258C9.55797 1.38449 9.36804 0.925981 9.02998 0.587919C8.69192 0.249857 8.23341 0.0599365 7.75532 0.0599365H2.18351Z" fill="white"/>
</svg>
