<svg width="27" height="15" viewBox="0 0 27 15" fill="none" xmlns="http://www.w3.org/2000/svg">
<path d="M6.27778 3V0H26.5V3H6.27778ZM6.27778 8.99999V5.99999H26.5V8.99999H6.27778ZM6.27778 15V12H26.5V15H6.27778ZM1.94445 3C1.53519 3 1.19238 2.856 0.916005 2.568C0.639635 2.28 0.500968 1.924 0.500005 1.5C0.499042 1.076 0.637709 0.719999 0.916005 0.432C1.1943 0.144 1.53712 0 1.94445 0C2.35178 0 2.69508 0.144 2.97434 0.432C3.2536 0.719999 3.39178 1.076 3.38889 1.5C3.386 1.924 3.24734 2.2805 2.97289 2.5695C2.69845 2.8585 2.35563 3.002 1.94445 3ZM1.94445 8.99999C1.53519 8.99999 1.19238 8.85599 0.916005 8.56799C0.639635 8.27999 0.500968 7.92399 0.500005 7.49999C0.499042 7.07599 0.637709 6.71999 0.916005 6.43199C1.1943 6.14399 1.53712 5.99999 1.94445 5.99999C2.35178 5.99999 2.69508 6.14399 2.97434 6.43199C3.2536 6.71999 3.39178 7.07599 3.38889 7.49999C3.386 7.92399 3.24734 8.28049 2.97289 8.56949C2.69845 8.85849 2.35563 9.00199 1.94445 8.99999ZM1.94445 15C1.53519 15 1.19238 14.856 0.916005 14.568C0.639635 14.28 0.500968 13.924 0.500005 13.5C0.499042 13.076 0.637709 12.72 0.916005 12.432C1.1943 12.144 1.53712 12 1.94445 12C2.35178 12 2.69508 12.144 2.97434 12.432C3.2536 12.72 3.39178 13.076 3.38889 13.5C3.386 13.924 3.24734 14.2805 2.97289 14.5695C2.69845 14.8585 2.35563 15.002 1.94445 15Z" fill="white"/>
</svg>
