<svg width="17" height="19" viewBox="0 0 17 19" fill="none" xmlns="http://www.w3.org/2000/svg">
<path d="M16.0126 4.80959L8.21795 0.224121L0.42334 4.80959V13.9789L8.21795 18.5644L16.0126 13.9789V4.80959ZM8.21795 12.6825C7.36194 12.6825 6.54099 12.3361 5.9357 11.7194C5.33041 11.1027 4.99037 10.2663 4.99037 9.39424C4.99037 8.52215 5.33041 7.68576 5.9357 7.0691C6.54099 6.45243 7.36194 6.10599 8.21795 6.10599C9.07395 6.10599 9.8949 6.45243 10.5002 7.0691C11.1055 7.68576 11.4455 8.52215 11.4455 9.39424C11.4455 10.2663 11.1055 11.1027 10.5002 11.7194C9.8949 12.3361 9.07395 12.6825 8.21795 12.6825Z" fill="white"/>
</svg>
