<svg width="25" height="23" viewBox="0 0 25 23" fill="none" xmlns="http://www.w3.org/2000/svg">
<path d="M0.353027 5.67627V3.47627H3.01969V2.37627C3.01969 1.79279 3.30065 1.23321 3.80074 0.820635C4.30084 0.408054 4.97912 0.17627 5.68636 0.17627H13.6864V7.87627L17.0197 6.22627L20.353 7.87627V0.17627H21.6864C23.0864 0.17627 24.353 1.22127 24.353 2.37627V19.9763C24.353 21.1313 23.0864 22.1763 21.6864 22.1763H5.68636C4.28636 22.1763 3.01969 21.1313 3.01969 19.9763V18.8763H0.353027V16.6763H3.01969V12.2763H0.353027V10.0763H3.01969V5.67627H0.353027ZM5.68636 10.0763H3.01969V12.2763H5.68636V10.0763ZM5.68636 5.67627V3.47627H3.01969V5.67627H5.68636ZM5.68636 18.8763V16.6763H3.01969V18.8763H5.68636Z" fill="white"/>
</svg>
