<svg width="15" height="11" viewBox="0 0 15 11" fill="none" xmlns="http://www.w3.org/2000/svg">
<path d="M7.91504 3.45752C7.40872 3.45752 6.92313 3.66823 6.56511 4.04331C6.20708 4.41838 6.00595 4.92709 6.00595 5.45752C6.00595 5.98795 6.20708 6.49666 6.56511 6.87173C6.92313 7.24681 7.40872 7.45752 7.91504 7.45752C8.42136 7.45752 8.90695 7.24681 9.26497 6.87173C9.62299 6.49666 9.82413 5.98795 9.82413 5.45752C9.82413 4.92709 9.62299 4.41838 9.26497 4.04331C8.90695 3.66823 8.42136 3.45752 7.91504 3.45752ZM7.91504 8.79085C7.07117 8.79085 6.26186 8.43966 5.66515 7.81454C5.06845 7.18942 4.73322 6.34157 4.73322 5.45752C4.73322 4.57346 5.06845 3.72562 5.66515 3.1005C6.26186 2.47538 7.07117 2.12419 7.91504 2.12419C8.75891 2.12419 9.56822 2.47538 10.1649 3.1005C10.7616 3.72562 11.0969 4.57346 11.0969 5.45752C11.0969 6.34157 10.7616 7.18942 10.1649 7.81454C9.56822 8.43966 8.75891 8.79085 7.91504 8.79085ZM7.91504 0.45752C4.73322 0.45752 2.01595 2.53085 0.915039 5.45752C2.01595 8.38419 4.73322 10.4575 7.91504 10.4575C11.0969 10.4575 13.8141 8.38419 14.915 5.45752C13.8141 2.53085 11.0969 0.45752 7.91504 0.45752Z" fill="#B2B2B2"/>
</svg>
