<svg width="23" height="23" viewBox="0 0 23 23" fill="none" xmlns="http://www.w3.org/2000/svg">
<path d="M22.001 3.05157C22.001 2.33352 22.001 1.97449 21.8566 1.7001C21.7311 1.45904 21.5308 1.26291 21.2844 1.13976C21.0035 1 20.636 1 19.901 1H3.10098C2.36598 1 1.99848 1 1.7176 1.13976C1.47065 1.26269 1.26987 1.45884 1.14404 1.7001C1.00098 1.97449 1.00098 2.33352 1.00098 3.05157V3.99657C1.00098 4.31071 1.00098 4.46715 1.03773 4.6146C1.06987 4.74588 1.12302 4.87137 1.19523 4.98645C1.27529 5.11467 1.38948 5.22622 1.61523 5.44805L8.26041 11.9387C8.48748 12.1605 8.60166 12.2721 8.68173 12.4003C8.75435 12.5165 8.80685 12.6405 8.83923 12.7721C8.87598 12.9183 8.87598 13.0735 8.87598 13.3799V19.4782C8.87598 20.5771 8.87598 21.1271 9.11223 21.458C9.21473 21.601 9.34606 21.7221 9.49818 21.8139C9.6503 21.9056 9.81999 21.966 9.99685 21.9914C10.405 22.0503 10.909 21.8054 11.9144 21.3131L12.9644 20.8002C13.387 20.595 13.597 20.4924 13.7506 20.3386C13.8868 20.2027 13.9904 20.0389 14.0538 19.859C14.126 19.6564 14.126 19.4256 14.126 18.9653V13.3902C14.126 13.076 14.126 12.9196 14.1627 12.7721C14.1949 12.6409 14.248 12.5154 14.3202 12.4003C14.399 12.2721 14.5132 12.1618 14.7363 11.9438L14.7415 11.9387L21.3867 5.44805C21.6125 5.22622 21.7254 5.11467 21.8067 4.98645C21.8794 4.87019 21.9319 4.74624 21.9642 4.6146C22.001 4.46971 22.001 4.31328 22.001 4.00683V3.05157Z" stroke="white" stroke-width="2" stroke-linecap="round" stroke-linejoin="round"/>
</svg>
