<svg width="17" height="18" viewBox="0 0 17 18" fill="none" xmlns="http://www.w3.org/2000/svg">
<path fill-rule="evenodd" clip-rule="evenodd" d="M2.68424 0C1.97234 0 1.28959 0.284464 0.786196 0.790812C0.282803 1.29716 0 1.98392 0 2.7V15.3C0 16.0161 0.282803 16.7028 0.786196 17.2092C1.28959 17.7155 1.97234 18 2.68424 18H8.05272C8.76463 18 9.44737 17.7155 9.95077 17.2092C10.4542 16.7028 10.737 16.0161 10.737 15.3V2.7C10.737 1.98392 10.4542 1.29716 9.95077 0.790812C9.44737 0.284464 8.76463 0 8.05272 0H2.68424ZM11.8939 4.7637C12.0617 4.59498 12.2892 4.50019 12.5265 4.50019C12.7637 4.50019 12.9913 4.59498 13.159 4.7637L16.738 8.3637C16.9058 8.53247 17 8.76135 17 9C17 9.23865 16.9058 9.46752 16.738 9.6363L13.159 13.2363C12.9903 13.4002 12.7643 13.491 12.5297 13.4889C12.2951 13.4869 12.0707 13.3922 11.9048 13.2253C11.7389 13.0585 11.6448 12.8327 11.6427 12.5968C11.6407 12.3608 11.7309 12.1334 11.8939 11.9637L13.9455 9.9H6.26323C6.02593 9.9 5.79834 9.80518 5.63055 9.6364C5.46275 9.46761 5.36848 9.23869 5.36848 9C5.36848 8.7613 5.46275 8.53239 5.63055 8.3636C5.79834 8.19482 6.02593 8.1 6.26323 8.1H13.9455L11.8939 6.0363C11.7261 5.86752 11.6319 5.63865 11.6319 5.4C11.6319 5.16135 11.7261 4.93248 11.8939 4.7637Z" fill="white"/>
</svg>
