<svg width="13" height="13" viewBox="0 0 13 13" fill="none" xmlns="http://www.w3.org/2000/svg">
<path fill-rule="evenodd" clip-rule="evenodd" d="M8.38544 0.926419C9.18232 0.416383 10.2444 0.971637 10.2444 1.89795V11.3978C10.2444 12.3248 9.18232 12.8793 8.38544 12.3693L4.27429 9.73933C4.24648 9.72133 4.21385 9.71163 4.18042 9.7114H2.19336C1.69362 9.7114 1.21435 9.51874 0.860974 9.1758C0.507604 8.83285 0.309082 8.36772 0.309082 7.88272V5.41301C0.309082 4.92801 0.507604 4.46288 0.860974 4.11993C1.21435 3.77699 1.69362 3.58432 2.19336 3.58432H4.18042C4.21401 3.58443 4.24689 3.57495 4.27497 3.55706L8.38544 0.926419ZM12.4712 4.15421C12.6075 4.15421 12.7382 4.20675 12.8346 4.30028C12.931 4.39381 12.9851 4.52067 12.9851 4.65294V8.64279C12.9851 8.77506 12.931 8.90192 12.8346 8.99545C12.7382 9.08898 12.6075 9.14152 12.4712 9.14152C12.335 9.14152 12.2042 9.08898 12.1079 8.99545C12.0115 8.90192 11.9573 8.77506 11.9573 8.64279V4.65294C11.9573 4.52067 12.0115 4.39381 12.1079 4.30028C12.2042 4.20675 12.335 4.15421 12.4712 4.15421Z" fill="#A7A5A5"/>
</svg>
