<svg width="20" height="20" viewBox="0 0 20 20" fill="none" xmlns="http://www.w3.org/2000/svg">
<path d="M15.1842 13.8942L19.0919 17.801L17.8009 19.092L13.8941 15.1843C12.4404 16.3496 10.6323 16.9834 8.76925 16.9808C4.23656 16.9808 0.557861 13.3021 0.557861 8.76937C0.557861 4.23669 4.23656 0.557983 8.76925 0.557983C13.3019 0.557983 16.9806 4.23669 16.9806 8.76937C16.9833 10.6324 16.3495 12.4405 15.1842 13.8942ZM13.3539 13.2172C14.5116 12.0263 15.1582 10.4302 15.1559 8.76937C15.1559 5.24121 12.2974 2.38274 8.76925 2.38274C5.24109 2.38274 2.38261 5.24121 2.38261 8.76937C2.38261 12.2975 5.24109 15.156 8.76925 15.156C10.4301 15.1583 12.0262 14.5117 13.2171 13.3541L13.3539 13.2172Z" fill="white"/>
</svg>
