<svg width="17" height="20" viewBox="0 0 17 20" fill="none" xmlns="http://www.w3.org/2000/svg">
<path d="M17 5.00045L8.5 0L0 5.00045V14.9996L8.5 20L17 14.9996V5.00045ZM8.5 13.5858C7.56653 13.5858 6.67128 13.208 6.01122 12.5356C5.35115 11.8631 4.98033 10.951 4.98033 10C4.98033 9.04898 5.35115 8.1369 6.01122 7.46443C6.67128 6.79196 7.56653 6.41416 8.5 6.41416C9.43347 6.41416 10.3287 6.79196 10.9888 7.46443C11.6488 8.1369 12.0197 9.04898 12.0197 10C12.0197 10.951 11.6488 11.8631 10.9888 12.5356C10.3287 13.208 9.43347 13.5858 8.5 13.5858Z" fill="white"/>
</svg>
