<svg width="42" height="37" viewBox="0 0 42 37" fill="none" xmlns="http://www.w3.org/2000/svg">
<path d="M21.0791 13.9445V35.4286M21.0791 13.9445L28.362 21.1059M21.0791 13.9445L13.7963 21.1059M34.431 25.8801C38.1185 25.8801 40.5 22.9415 40.5 19.3155C40.4999 17.8799 40.0212 16.484 39.1373 15.3415C38.2533 14.1989 37.0129 13.3728 35.6059 12.9896C35.3895 10.3124 34.2611 7.78517 32.4032 5.81657C30.5453 3.84798 28.0665 2.55307 25.3675 2.1412C22.6686 1.72934 19.9072 2.22459 17.53 3.54689C15.1527 4.86919 13.2984 6.94125 12.2669 9.42806C10.0952 8.83611 7.77338 9.11671 5.8121 10.2081C3.85082 11.2996 2.41079 13.1124 1.8088 15.2479C1.2068 17.3833 1.49216 19.6665 2.6021 21.595C3.71203 23.5236 5.55562 24.9396 7.7273 25.5316" stroke="white" stroke-width="2.78571" stroke-linecap="round" stroke-linejoin="round"/>
</svg>
