<svg width="17" height="17" viewBox="0 0 17 17" fill="none" xmlns="http://www.w3.org/2000/svg">
<path d="M8.21795 0.879883C12.5229 0.879883 16.0126 4.36953 16.0126 8.67449C16.0126 12.9794 12.5229 16.4691 8.21795 16.4691H1.98226C1.56881 16.4691 1.17229 16.3049 0.879937 16.0125C0.587583 15.7201 0.42334 15.3236 0.42334 14.9102V8.67449C0.42334 4.36953 3.91298 0.879883 8.21795 0.879883ZM8.21795 10.2334H5.87956C5.67284 10.2334 5.47458 10.3155 5.3284 10.4617C5.18223 10.6079 5.1001 10.8061 5.1001 11.0129C5.1001 11.2196 5.18223 11.4179 5.3284 11.564C5.47458 11.7102 5.67284 11.7923 5.87956 11.7923H8.21795C8.42467 11.7923 8.62293 11.7102 8.76911 11.564C8.91529 11.4179 8.99741 11.2196 8.99741 11.0129C8.99741 10.8061 8.91529 10.6079 8.76911 10.4617C8.62293 10.3155 8.42467 10.2334 8.21795 10.2334ZM10.5563 7.11557H5.87956C5.6809 7.11579 5.48981 7.19186 5.34535 7.32824C5.20088 7.46462 5.11395 7.65102 5.10231 7.84935C5.09066 8.04768 5.15519 8.24296 5.2827 8.39531C5.41022 8.54766 5.59109 8.64557 5.78837 8.66903L5.87956 8.67449H10.5563C10.755 8.67427 10.9461 8.5982 11.0905 8.46181C11.235 8.32543 11.3219 8.13904 11.3336 7.94071C11.3452 7.74238 11.2807 7.54709 11.1532 7.39475C11.0257 7.2424 10.8448 7.14449 10.6475 7.12102L10.5563 7.11557Z" fill="white"/>
</svg>
