<svg width="23" height="27" viewBox="0 0 23 27" fill="none" xmlns="http://www.w3.org/2000/svg">
<path d="M9.80769 3.68701H6.42308C5.64525 3.68701 4.87503 3.83412 4.15641 4.11995C3.43779 4.40577 2.78484 4.82471 2.23483 5.35284C1.68482 5.88098 1.24853 6.50796 0.950867 7.198C0.653205 7.88804 0.5 8.62762 0.5 9.37451C0.5 10.1214 0.653205 10.861 0.950867 11.551C1.24853 12.2411 1.68482 12.868 2.23483 13.3962C2.78484 13.9243 3.43779 14.3433 4.15641 14.6291C4.87503 14.9149 5.64525 15.062 6.42308 15.062H9.80769V19.937H2.19231V23.187H9.80769V26.437H13.1923V23.187H16.5769C18.1478 23.187 19.6544 22.5878 20.7652 21.5212C21.876 20.4546 22.5 19.0079 22.5 17.4995C22.5 15.9911 21.876 14.5445 20.7652 13.4778C19.6544 12.4112 18.1478 11.812 16.5769 11.812H13.1923V6.93701H20.8077V3.68701H13.1923V0.437012H9.80769V3.68701ZM13.1923 15.062H16.5769C17.2502 15.062 17.8958 15.3188 18.3719 15.7759C18.8479 16.2331 19.1154 16.853 19.1154 17.4995C19.1154 18.146 18.8479 18.766 18.3719 19.2231C17.8958 19.6802 17.2502 19.937 16.5769 19.937H13.1923V15.062ZM9.80769 11.812H6.42308C6.08972 11.812 5.75963 11.749 5.45165 11.6265C5.14367 11.504 4.86383 11.3244 4.62811 11.0981C4.3924 10.8717 4.20541 10.603 4.07784 10.3073C3.95027 10.0116 3.88462 9.69461 3.88462 9.37451C3.88462 9.05441 3.95027 8.73745 4.07784 8.44172C4.20541 8.14599 4.3924 7.87728 4.62811 7.65094C4.86383 7.4246 5.14367 7.24505 5.45165 7.12256C5.75963 7.00006 6.08972 6.93701 6.42308 6.93701H9.80769V11.812Z" fill="white"/>
</svg>
