<svg width="15" height="20" viewBox="0 0 15 20" fill="none" xmlns="http://www.w3.org/2000/svg">
<path d="M7.4504 0.569336C8.24269 0.569336 9.00253 0.883097 9.56276 1.44159C10.123 2.00009 10.4377 2.75758 10.4377 3.54741V9.50356C10.4377 10.2934 10.123 11.0509 9.56276 11.6094C9.00253 12.1679 8.24269 12.4816 7.4504 12.4816C6.65812 12.4816 5.89828 12.1679 5.33805 11.6094C4.77781 11.0509 4.46308 10.2934 4.46308 9.50356V3.54741C4.46308 2.75758 4.77781 2.00009 5.33805 1.44159C5.89828 0.883097 6.65812 0.569336 7.4504 0.569336ZM14.4208 9.50356C14.4208 13.0078 11.8219 15.8965 8.44618 16.3829V19.4305H6.45463V16.3829C3.07895 15.8965 0.47998 13.0078 0.47998 9.50356H2.47153C2.47153 10.82 2.99609 12.0824 3.92981 13.0133C4.86353 13.9441 6.12992 14.467 7.4504 14.467C8.77088 14.467 10.0373 13.9441 10.971 13.0133C11.9047 12.0824 12.4293 10.82 12.4293 9.50356H14.4208Z" fill="white"/>
</svg>
