<svg width="26" height="25" viewBox="0 0 26 25" fill="none" xmlns="http://www.w3.org/2000/svg">
<path d="M2.82783 25C2.06394 25 1.41023 24.7554 0.866716 24.2662C0.323197 23.7771 0.0509748 23.1883 0.0500488 22.5V5C0.0500488 4.3125 0.322271 3.72417 0.866716 3.235C1.41116 2.74583 2.06486 2.50083 2.82783 2.5H8.66116C8.96208 1.75 9.46579 1.14583 10.1723 0.6875C10.8788 0.229167 11.6713 0 12.55 0C13.4288 0 14.2218 0.229167 14.9292 0.6875C15.6366 1.14583 16.1399 1.75 16.4389 2.5H22.2723C23.0362 2.5 23.6903 2.745 24.2348 3.235C24.7792 3.725 25.051 4.31333 25.05 5V22.5C25.05 23.1875 24.7783 23.7762 24.2348 24.2662C23.6913 24.7562 23.0371 25.0008 22.2723 25H2.82783ZM5.6056 20H15.3278V17.5H5.6056V20ZM5.6056 15H19.4945V12.5H5.6056V15ZM5.6056 10H19.4945V7.5H5.6056V10ZM12.55 4.0625C12.851 4.0625 13.1 3.97375 13.2973 3.79625C13.4945 3.61875 13.5926 3.395 13.5917 3.125C13.5908 2.855 13.4922 2.63125 13.2959 2.45375C13.0996 2.27625 12.851 2.1875 12.55 2.1875C12.2491 2.1875 12.0005 2.27625 11.8042 2.45375C11.6079 2.63125 11.5093 2.855 11.5084 3.125C11.5075 3.395 11.6061 3.61917 11.8042 3.7975C12.0024 3.97583 12.251 4.06417 12.55 4.0625Z" fill="white"/>
</svg>
