<svg width="17" height="17" viewBox="0 0 17 17" fill="none" xmlns="http://www.w3.org/2000/svg">
<path fill-rule="evenodd" clip-rule="evenodd" d="M2.88482 0.0429688C2.232 0.0429688 1.60591 0.303825 1.14429 0.768153C0.682674 1.23248 0.42334 1.86224 0.42334 2.5189V14.0733C0.42334 14.7299 0.682674 15.3597 1.14429 15.824C1.60591 16.2883 2.232 16.5492 2.88482 16.5492H7.80779C8.46061 16.5492 9.0867 16.2883 9.54832 15.824C10.0099 15.3597 10.2693 14.7299 10.2693 14.0733V2.5189C10.2693 1.86224 10.0099 1.23248 9.54832 0.768153C9.0867 0.303825 8.46061 0.0429688 7.80779 0.0429688H2.88482ZM11.3302 4.41134C11.484 4.25662 11.6927 4.1697 11.9103 4.1697C12.1278 4.1697 12.3365 4.25662 12.4903 4.41134L15.7723 7.71259C15.9261 7.86735 16.0126 8.07724 16.0126 8.29608C16.0126 8.51492 15.9261 8.72481 15.7723 8.87958L12.4903 12.1808C12.3356 12.3312 12.1283 12.4143 11.9132 12.4125C11.6981 12.4106 11.4923 12.3238 11.3402 12.1708C11.188 12.0177 11.1017 11.8107 11.0999 11.5944C11.098 11.378 11.1807 11.1695 11.3302 11.0138L13.2116 9.12139H6.1668C5.94919 9.12139 5.74049 9.03444 5.58662 8.87966C5.43275 8.72489 5.3463 8.51497 5.3463 8.29608C5.3463 8.07719 5.43275 7.86727 5.58662 7.7125C5.74049 7.55772 5.94919 7.47077 6.1668 7.47077H13.2116L11.3302 5.57833C11.1763 5.42356 11.0899 5.21368 11.0899 4.99484C11.0899 4.77599 11.1763 4.56611 11.3302 4.41134Z" fill="white"/>
</svg>
