<svg width="31" height="39" viewBox="0 0 31 39" fill="none" xmlns="http://www.w3.org/2000/svg">
<path d="M15.4287 0.333496C10.2593 0.333496 6.05371 4.5952 6.05371 9.8335V15.5335H4.17871C3.18415 15.5335 2.23032 15.9339 1.52706 16.6465C0.823799 17.3591 0.428711 18.3257 0.428711 19.3335V34.5335C0.428711 35.5413 0.823799 36.5079 1.52706 37.2205C2.23032 37.9331 3.18415 38.3335 4.17871 38.3335H26.6787C27.6733 38.3335 28.6271 37.9331 29.3304 37.2205C30.0336 36.5079 30.4287 35.5413 30.4287 34.5335V19.3335C30.4287 18.3257 30.0336 17.3591 29.3304 16.6465C28.6271 15.9339 27.6733 15.5335 26.6787 15.5335H24.8037V9.8335C24.8037 4.5952 20.5981 0.333496 15.4287 0.333496ZM9.80371 9.8335C9.80371 6.6909 12.3275 4.1335 15.4287 4.1335C18.53 4.1335 21.0537 6.6909 21.0537 9.8335V15.5335H9.80371V9.8335ZM17.3037 30.2072V34.5335H13.5537V30.2072C12.8982 29.8268 12.3718 29.254 12.044 28.5644C11.7162 27.8747 11.6024 27.1006 11.7175 26.3441C11.8326 25.5875 12.1713 24.8841 12.6889 24.3266C13.2065 23.769 13.8787 23.3835 14.6168 23.2209C15.1652 23.0977 15.7338 23.1008 16.2807 23.2302C16.8277 23.3595 17.339 23.6116 17.7769 23.968C18.2148 24.3244 18.5681 24.7759 18.8107 25.2891C19.0534 25.8024 19.1791 26.3644 19.1787 26.9335C19.1776 27.598 19.0037 28.2505 18.6746 28.8252C18.3454 29.3999 17.8726 29.8766 17.3037 30.2072Z" fill="white"/>
</svg>
