<svg width="34" height="45" viewBox="0 0 34 45" fill="none" xmlns="http://www.w3.org/2000/svg">
<path d="M33.995 20.9073C34.0057 21.7213 33.8348 22.5276 33.4943 23.2686C33.1367 24.0525 32.5884 24.7326 31.897 25.2521L8.89101 42.9854C8.08112 43.597 7.11526 43.9732 6.10168 44.0716H5.55335C4.72463 44.0719 3.90763 43.8777 3.16931 43.5049C2.27342 43.0692 1.51526 42.3986 0.977246 41.566C0.439234 40.7333 0.141961 39.7706 0.117742 38.7823V5.72411C0.112801 4.74829 0.385455 3.79083 0.904475 2.96139C1.40674 2.13201 2.12621 1.45268 2.98662 0.995399C3.84703 0.538119 4.81632 0.31993 5.79176 0.363956C6.77398 0.411182 7.7276 0.713428 8.55725 1.23764L31.5871 16.4444C32.288 16.9261 32.8745 17.5542 33.3036 18.2862C33.7566 19.0891 33.995 19.9887 33.995 20.9073Z" fill="white" fill-opacity="0.6"/>
</svg>
