<svg width="18" height="21" viewBox="0 0 18 21" fill="none" xmlns="http://www.w3.org/2000/svg">
<path d="M17.8569 9.87176C17.8623 10.2628 17.7766 10.6502 17.6057 11.0061C17.4263 11.3827 17.1511 11.7094 16.8042 11.959L5.25967 20.4782C4.85327 20.772 4.3686 20.9527 3.85998 21H3.58482C3.16897 21.0001 2.75899 20.9068 2.3885 20.7278C1.93894 20.5184 1.55849 20.1963 1.28851 19.7963C1.01854 19.3963 0.869364 18.9338 0.857211 18.459V2.57771C0.854731 2.10892 0.991551 1.64895 1.252 1.25049C1.50404 0.852049 1.86507 0.525696 2.29683 0.306017C2.72858 0.0863386 3.21498 -0.0184804 3.70446 0.00267C4.19734 0.0253576 4.67587 0.170558 5.09219 0.42239L16.6487 7.72778C17.0004 7.95919 17.2947 8.26094 17.51 8.6126C17.7373 8.99829 17.8569 9.43048 17.8569 9.87176Z" fill="white"/>
</svg>
