<svg width="20" height="20" viewBox="0 0 20 20" fill="none" xmlns="http://www.w3.org/2000/svg">
<path d="M19.4616 0.0210927L0.279125 6.417C0.200583 6.44312 0.131849 6.49252 0.082054 6.55864C0.0322591 6.62476 0.00376144 6.70447 0.000347213 6.78717C-0.00306701 6.86987 0.018764 6.95166 0.0629396 7.02166C0.107115 7.09165 0.171544 7.14655 0.247665 7.17906L7.29703 10.2005C7.33397 10.2165 7.37442 10.2226 7.41445 10.2183C7.45447 10.2141 7.4927 10.1995 7.52541 10.176L14.4361 5.2378C14.6505 5.08632 14.9138 5.34966 14.7624 5.56406L9.82432 12.475C9.80126 12.5077 9.78701 12.5458 9.78292 12.5856C9.77884 12.6254 9.78507 12.6655 9.80102 12.7022L12.8212 19.7518C12.8536 19.828 12.9084 19.8925 12.9783 19.9367C13.0482 19.981 13.13 20.003 13.2126 19.9997C13.2953 19.9964 13.3751 19.968 13.4413 19.9183C13.5075 19.8687 13.557 19.8 13.5832 19.7215L19.9789 0.537287C20.003 0.465382 20.0065 0.38819 19.9892 0.314381C19.9718 0.240572 19.9342 0.173068 19.8806 0.11945C19.8269 0.0658327 19.7594 0.0282248 19.6856 0.0108504C19.6118 -0.00652409 19.5335 -0.00297724 19.4616 0.0210927Z" fill="white"/>
</svg>
