<svg width="26" height="25" viewBox="0 0 26 25" fill="none" xmlns="http://www.w3.org/2000/svg">
<path d="M22.73 2.50023H16.9245C16.6401 1.76953 16.1104 1.13644 15.4087 0.688519C14.7071 0.240601 13.8681 0 13.0078 0C12.1476 0 11.3086 0.240601 10.6069 0.688519C9.90521 1.13644 9.37554 1.76953 9.09115 2.50023H3.28559C2.54955 2.50221 1.84429 2.76623 1.32383 3.23464C0.803375 3.70305 0.510011 4.33778 0.507812 5.0002V22.5C0.510011 23.1625 0.803375 23.7972 1.32383 24.2656C1.84429 24.734 2.54955 24.998 3.28559 25H22.73C23.4661 24.998 24.1713 24.734 24.6918 24.2656C25.2123 23.7972 25.5056 23.1625 25.5078 22.5V5.0002C25.5056 4.33778 25.2123 3.70305 24.6918 3.23464C24.1713 2.76623 23.4661 2.50221 22.73 2.50023ZM13.0078 2.50023C13.2825 2.50023 13.551 2.57354 13.7794 2.71089C14.0078 2.84824 14.1859 3.04346 14.291 3.27187C14.3961 3.50027 14.4236 3.7516 14.37 3.99408C14.3164 4.23655 14.1841 4.45928 13.9899 4.63409C13.7957 4.8089 13.5482 4.92795 13.2788 4.97618C13.0094 5.02442 12.7301 4.99966 12.4763 4.90505C12.2225 4.81044 12.0056 4.65023 11.853 4.44467C11.7004 4.23911 11.6189 3.99744 11.6189 3.75022C11.62 3.419 11.7667 3.10164 12.0269 2.86743C12.2872 2.63323 12.6398 2.50122 13.0078 2.50023ZM10.23 8.75016L14.105 12.2426L17.605 9.09266L15.7856 7.50018H21.3411V12.5001L19.5689 10.8614L14.1078 15.7801L10.23 12.2876L6.63837 15.5176L4.67448 13.7501L10.23 8.75016ZM22.73 21.25H3.28559V18.7501H22.73V21.25Z" fill="white"/>
</svg>
