<svg width="30" height="26" viewBox="0 0 30 26" fill="none" xmlns="http://www.w3.org/2000/svg">
<path d="M15.0559 9.80773V24.9922M15.0559 9.80773L20.2033 14.8692M15.0559 9.80773L9.90857 14.8692M24.4927 18.2436C27.099 18.2436 28.7822 16.1667 28.7822 13.6039C28.7821 12.5892 28.4438 11.6026 27.819 10.7951C27.1943 9.98755 26.3176 9.40367 25.3232 9.13286C25.1702 7.24063 24.3726 5.45444 23.0595 4.06308C21.7464 2.67171 19.9944 1.7565 18.0869 1.4654C16.1793 1.1743 14.2276 1.52434 12.5474 2.45891C10.8672 3.39349 9.55665 4.85797 8.82762 6.6156C7.29272 6.19722 5.65167 6.39555 4.26548 7.16694C2.87928 7.93834 1.8615 9.21962 1.43602 10.7289C1.01055 12.2382 1.21223 13.8519 1.99671 15.215C2.78119 16.5781 4.08421 17.5789 5.6191 17.9972" stroke="white" stroke-width="1.96889" stroke-linecap="round" stroke-linejoin="round"/>
</svg>
