<svg width="25" height="20" viewBox="0 0 25 20" fill="none" xmlns="http://www.w3.org/2000/svg">
<path d="M1.01537 5.08991L11.4757 0.849569C12.0457 0.618503 12.6607 0.618503 13.2303 0.849569L23.691 5.08991C24.5737 5.44764 24.5737 6.98791 23.691 7.34565L21.8673 8.08486C22.2675 8.73749 22.5135 9.5336 22.5378 10.4054C22.899 10.6785 23.1532 11.1714 23.1532 11.7597C23.1532 12.293 22.9402 12.7418 22.6335 13.0288L23.5908 18.7129C23.6741 19.2072 23.3891 19.6763 23.0055 19.6763H20.9013C20.5173 19.6763 20.2323 19.2072 20.3156 18.7129L21.273 13.0288C20.9662 12.7418 20.7532 12.293 20.7532 11.7597C20.7532 11.1872 20.9958 10.7082 21.3405 10.4302C21.312 9.68699 21.024 9.02991 20.5646 8.6133L13.2307 11.5865C12.8909 11.724 12.2392 11.8957 11.476 11.5865L1.01537 7.34614C0.132244 6.98792 0.132244 5.44813 1.01537 5.08991ZM11.1235 13.1C12.1934 13.5335 13.105 13.294 13.5832 13.1L19.0214 10.8958L19.5532 16.5096C19.5532 18.2587 16.3297 19.6763 12.3532 19.6763C8.37665 19.6763 5.15314 18.2587 5.15314 16.5096L5.68489 10.8953L11.1235 13.1Z" fill="white"/>
</svg>
