<svg width="26" height="22" viewBox="0 0 26 22" fill="none" xmlns="http://www.w3.org/2000/svg">
<path fill-rule="evenodd" clip-rule="evenodd" d="M9.2025 20.0458C5.52375 17.2602 0.5 12.6588 0.5 8.30809C0.5 1.03966 7.375 -1.67426 13 3.93888C18.625 -1.67426 25.5 1.03966 25.5 8.30809C25.5 12.6588 20.475 17.2602 16.7975 20.0458C15.1325 21.3058 14.3 21.937 13 21.937C11.7 21.937 10.8675 21.307 9.2025 20.0458ZM18.625 4.95182C18.8736 4.95182 19.1121 5.04942 19.2879 5.22317C19.4637 5.39692 19.5625 5.63257 19.5625 5.87828V7.42239H21.125C21.3736 7.42239 21.6121 7.52 21.7879 7.69375C21.9637 7.86749 22.0625 8.10314 22.0625 8.34886C22.0625 8.59457 21.9637 8.83022 21.7879 9.00396C21.6121 9.17771 21.3736 9.27532 21.125 9.27532H19.5625V10.8194C19.5625 11.0651 19.4637 11.3008 19.2879 11.4745C19.1121 11.6483 18.8736 11.7459 18.625 11.7459C18.3764 11.7459 18.1379 11.6483 17.9621 11.4745C17.7863 11.3008 17.6875 11.0651 17.6875 10.8194V9.27532H16.125C15.8764 9.27532 15.6379 9.17771 15.4621 9.00396C15.2863 8.83022 15.1875 8.59457 15.1875 8.34886C15.1875 8.10314 15.2863 7.86749 15.4621 7.69375C15.6379 7.52 15.8764 7.42239 16.125 7.42239H17.6875V5.87828C17.6875 5.63257 17.7863 5.39692 17.9621 5.22317C18.1379 5.04942 18.3764 4.95182 18.625 4.95182Z" fill="white"/>
</svg>
