<svg width="11" height="11" viewBox="0 0 11 11" fill="none" xmlns="http://www.w3.org/2000/svg">
<path opacity="0.75" d="M8.97174 3.49585V9.49065C8.97174 9.71414 9.04746 9.90161 9.19891 10.0531C9.35036 10.2045 9.53756 10.28 9.76053 10.2794C9.98349 10.2789 10.1707 10.2032 10.3221 10.0523C10.4736 9.90135 10.5493 9.71414 10.5493 9.49065V1.60275C10.5493 1.37926 10.4736 1.19206 10.3221 1.04114C10.1707 0.890215 9.98349 0.814491 9.76053 0.813965H1.87263C1.64914 0.813965 1.46167 0.889689 1.31022 1.04114C1.15877 1.19258 1.08331 1.37979 1.08384 1.60275C1.08436 1.82572 1.16009 2.01319 1.31101 2.16516C1.46193 2.31714 1.64914 2.3926 1.87263 2.39154H7.86743L0.847202 9.41177C0.702591 9.55639 0.630284 9.74044 0.630284 9.96393C0.630284 10.1874 0.702591 10.3715 0.847202 10.5161C0.991814 10.6607 1.17586 10.733 1.39935 10.733C1.62284 10.733 1.8069 10.6607 1.95151 10.5161L8.97174 3.49585Z" fill="black"/>
</svg>
