<svg width="11" height="18" viewBox="0 0 11 18" fill="none" xmlns="http://www.w3.org/2000/svg">
<path d="M1.34619 5.54507V12.4547C1.34619 13.6 1.77518 14.6984 2.53877 15.5083C3.30237 16.3182 4.33803 16.7732 5.41792 16.7732C6.49782 16.7732 7.53348 16.3182 8.29707 15.5083C9.06067 14.6984 9.48966 13.6 9.48966 12.4547V4.24952C9.48966 3.44778 9.18937 2.67888 8.65485 2.11197C8.12033 1.54505 7.39537 1.22656 6.63944 1.22656C5.88352 1.22656 5.15856 1.54505 4.62404 2.11197C4.08952 2.67888 3.78923 3.44778 3.78923 4.24952V11.591C3.78923 12.0491 3.96083 12.4885 4.26626 12.8124C4.5717 13.1364 4.98597 13.3184 5.41792 13.3184C5.84988 13.3184 6.26414 13.1364 6.56958 12.8124C6.87502 12.4885 7.04662 12.0491 7.04662 11.591V5.54507" stroke="white" stroke-width="1.48063" stroke-linecap="round" stroke-linejoin="round"/>
</svg>
