<svg width="12" height="10" viewBox="0 0 12 10" fill="none" xmlns="http://www.w3.org/2000/svg">
<path fill-rule="evenodd" clip-rule="evenodd" d="M4.53159 8.90552C2.86677 7.6449 0.593262 5.56251 0.593262 3.59361C0.593262 0.304267 3.70455 -0.923925 6.25016 1.61631C8.79576 -0.923925 11.9071 0.304267 11.9071 3.59361C11.9071 5.56251 9.63298 7.6449 7.96872 8.90552C7.21522 9.47573 6.83847 9.7614 6.25016 9.7614C5.66184 9.7614 5.28509 9.47629 4.53159 8.90552ZM8.79576 2.07472C8.90828 2.07472 9.0162 2.11889 9.09576 2.19752C9.17533 2.27615 9.22003 2.38279 9.22003 2.49399V3.19278H9.92714C10.0397 3.19278 10.1476 3.23695 10.2271 3.31558C10.3067 3.39421 10.3514 3.50086 10.3514 3.61205C10.3514 3.72325 10.3067 3.8299 10.2271 3.90852C10.1476 3.98715 10.0397 4.03133 9.92714 4.03133H9.22003V4.73012C9.22003 4.84131 9.17533 4.94796 9.09576 5.02659C9.0162 5.10522 8.90828 5.14939 8.79576 5.14939C8.68324 5.14939 8.57532 5.10522 8.49576 5.02659C8.41619 4.94796 8.37149 4.84131 8.37149 4.73012V4.03133H7.66438C7.55186 4.03133 7.44394 3.98715 7.36438 3.90852C7.28481 3.8299 7.24011 3.72325 7.24011 3.61205C7.24011 3.50086 7.28481 3.39421 7.36438 3.31558C7.44394 3.23695 7.55186 3.19278 7.66438 3.19278H8.37149V2.49399C8.37149 2.38279 8.41619 2.27615 8.49576 2.19752C8.57532 2.11889 8.68324 2.07472 8.79576 2.07472Z" fill="white"/>
</svg>
