<svg width="10" height="11" viewBox="0 0 10 11" fill="none" xmlns="http://www.w3.org/2000/svg">
<path opacity="0.75" d="M8.34137 3.07837V9.07317C8.34137 9.29666 8.41709 9.48413 8.56854 9.63558C8.71998 9.78703 8.90719 9.86249 9.13016 9.86196C9.35312 9.86144 9.54033 9.78571 9.69177 9.63479C9.84322 9.48387 9.91895 9.29666 9.91895 9.07317V1.18527C9.91895 0.961784 9.84322 0.774578 9.69177 0.623656C9.54033 0.472734 9.35312 0.39701 9.13016 0.396484H1.24226C1.01877 0.396484 0.831298 0.472208 0.679851 0.623656C0.528403 0.775104 0.452942 0.96231 0.453467 1.18527C0.453993 1.40824 0.529717 1.59571 0.680639 1.74768C0.831561 1.89965 1.01877 1.97512 1.24226 1.97406H7.23706L0.216831 8.99429C0.0722198 9.1389 -8.67844e-05 9.32296 -8.67844e-05 9.54645C-8.67844e-05 9.76994 0.0722198 9.95399 0.216831 10.0986C0.361443 10.2432 0.545492 10.3155 0.768983 10.3155C0.992474 10.3155 1.17653 10.2432 1.32114 10.0986L8.34137 3.07837Z" fill="black"/>
</svg>
