<svg width="14" height="23" viewBox="0 0 14 23" fill="none" xmlns="http://www.w3.org/2000/svg">
<path d="M1.47229 6.83333V16.1667C1.47229 17.7138 2.05175 19.1975 3.0832 20.2915C4.11465 21.3854 5.5136 22 6.97229 22C8.43098 22 9.82993 21.3854 10.8614 20.2915C11.8928 19.1975 12.4723 17.7138 12.4723 16.1667V5.08333C12.4723 4.00037 12.0667 2.96175 11.3447 2.19598C10.6226 1.43021 9.64337 1 8.62229 1C7.60121 1 6.62194 1.43021 5.89993 2.19598C5.17791 2.96175 4.77229 4.00037 4.77229 5.08333V15C4.77229 15.6188 5.00408 16.2123 5.41666 16.6499C5.82924 17.0875 6.38881 17.3333 6.97229 17.3333C7.55577 17.3333 8.11534 17.0875 8.52792 16.6499C8.9405 16.2123 9.17229 15.6188 9.17229 15V6.83333" stroke="white" stroke-width="2" stroke-linecap="round" stroke-linejoin="round"/>
</svg>
