<svg width="17" height="21" viewBox="0 0 17 21" fill="none" xmlns="http://www.w3.org/2000/svg">
<path d="M16.9998 9.87176C17.0052 10.2628 16.9194 10.6502 16.7485 11.0061C16.5691 11.3827 16.2939 11.7094 15.947 11.959L4.4025 20.4782C3.99609 20.772 3.51142 20.9527 3.0028 21H2.72765C2.31179 21.0001 1.90182 20.9068 1.53132 20.7278C1.08176 20.5184 0.701313 20.1963 0.431336 19.7963C0.161359 19.3963 0.0121862 18.9338 3.31113e-05 18.459V2.57771C-0.00244636 2.10892 0.134373 1.64895 0.394819 1.25049C0.646859 0.852049 1.00789 0.525696 1.43965 0.306017C1.8714 0.0863386 2.3578 -0.0184804 2.84728 0.00267C3.34016 0.0253576 3.81869 0.170558 4.23501 0.42239L15.7915 7.72778C16.1432 7.95919 16.4375 8.26094 16.6528 8.6126C16.8801 8.99829 16.9998 9.43048 16.9998 9.87176Z" fill="white"/>
</svg>
