<svg width="18" height="18" viewBox="0 0 18 18" fill="none" xmlns="http://www.w3.org/2000/svg">
<path d="M8.58931 0.486328C13.2914 0.486328 17.1029 4.29788 17.1029 8.99995C17.1029 13.702 13.2914 17.5136 8.58931 17.5136C3.88723 17.5136 0.0756836 13.702 0.0756836 8.99995C0.0756836 4.29788 3.88723 0.486328 8.58931 0.486328ZM8.58931 2.18905C6.78294 2.18905 5.05057 2.90663 3.77327 4.18392C2.49598 5.46121 1.77841 7.19359 1.77841 8.99995C1.77841 10.8063 2.49598 12.5387 3.77327 13.816C5.05057 15.0933 6.78294 15.8108 8.58931 15.8108C10.3957 15.8108 12.128 15.0933 13.4053 13.816C14.6826 12.5387 15.4002 10.8063 15.4002 8.99995C15.4002 7.19359 14.6826 5.46121 13.4053 4.18392C12.128 2.90663 10.3957 2.18905 8.58931 2.18905ZM10.9731 10.5809C11.0526 10.5008 11.1471 10.4373 11.2513 10.394C11.3555 10.3507 11.4673 10.3286 11.5801 10.3289C11.6929 10.3292 11.8046 10.352 11.9085 10.3958C12.0125 10.4396 12.1067 10.5037 12.1857 10.5843C12.2647 10.6648 12.3269 10.7603 12.3686 10.8651C12.4104 10.9699 12.4309 11.082 12.429 11.1948C12.4271 11.3076 12.4027 11.4189 12.3574 11.5222C12.3121 11.6256 12.2467 11.7188 12.165 11.7967C11.2112 12.7341 9.92673 13.2586 8.58931 13.2568C7.25189 13.2586 5.96745 12.7341 5.01359 11.7967C4.85611 11.6378 4.76748 11.4234 4.76686 11.1997C4.76625 10.976 4.85369 10.761 5.01029 10.6013C5.16689 10.4416 5.38006 10.3499 5.60371 10.3461C5.82737 10.3423 6.04354 10.4266 6.20549 10.5809C6.8411 11.2063 7.69761 11.556 8.58931 11.554C9.51729 11.554 10.3576 11.1837 10.9731 10.5809ZM5.60954 5.5945C5.94823 5.5945 6.27305 5.72905 6.51255 5.96854C6.75204 6.20803 6.88658 6.53285 6.88658 6.87155C6.88658 7.21024 6.75204 7.53506 6.51255 7.77455C6.27305 8.01404 5.94823 8.14859 5.60954 8.14859C5.27085 8.14859 4.94602 8.01404 4.70653 7.77455C4.46704 7.53506 4.3325 7.21024 4.3325 6.87155C4.3325 6.53285 4.46704 6.20803 4.70653 5.96854C4.94602 5.72905 5.27085 5.5945 5.60954 5.5945ZM11.5691 5.5945C11.9078 5.5945 12.2326 5.72905 12.4721 5.96854C12.7116 6.20803 12.8461 6.53285 12.8461 6.87155C12.8461 7.21024 12.7116 7.53506 12.4721 7.77455C12.2326 8.01404 11.9078 8.14859 11.5691 8.14859C11.2304 8.14859 10.9056 8.01404 10.6661 7.77455C10.4266 7.53506 10.292 7.21024 10.292 6.87155C10.292 6.53285 10.4266 6.20803 10.6661 5.96854C10.9056 5.72905 11.2304 5.5945 11.5691 5.5945Z" fill="white"/>
</svg>
