<svg width="24" height="23" viewBox="0 0 24 23" fill="none" xmlns="http://www.w3.org/2000/svg">
<path d="M12.1724 0C18.5238 0 23.6724 5.14855 23.6724 11.5C23.6724 17.8514 18.5238 23 12.1724 23C5.82091 23 0.672363 17.8514 0.672363 11.5C0.672363 5.14855 5.82091 0 12.1724 0ZM12.1724 2.3C9.73237 2.3 7.39232 3.26928 5.66698 4.99462C3.94165 6.71995 2.97236 9.06001 2.97236 11.5C2.97236 13.94 3.94165 16.28 5.66698 18.0054C7.39232 19.7307 9.73237 20.7 12.1724 20.7C14.6124 20.7 16.9524 19.7307 18.6777 18.0054C20.4031 16.28 21.3724 13.94 21.3724 11.5C21.3724 9.06001 20.4031 6.71995 18.6777 4.99462C16.9524 3.26928 14.6124 2.3 12.1724 2.3ZM15.3924 13.6356C15.4997 13.5273 15.6274 13.4415 15.7681 13.383C15.9089 13.3246 16.0599 13.2947 16.2123 13.2952C16.3647 13.2956 16.5155 13.3263 16.6559 13.3855C16.7963 13.4447 16.9236 13.5312 17.0303 13.6401C17.137 13.7489 17.221 13.8778 17.2774 14.0194C17.3338 14.161 17.3615 14.3124 17.3589 14.4647C17.3563 14.6171 17.3235 14.7675 17.2623 14.907C17.201 15.0466 17.1127 15.1726 17.0024 15.2777C15.7139 16.5441 13.9789 17.2525 12.1724 17.25C10.3658 17.2525 8.63082 16.5441 7.34236 15.2777C7.12965 15.0632 7.00993 14.7735 7.0091 14.4713C7.00826 14.1692 7.12638 13.8788 7.33791 13.6631C7.54944 13.4473 7.83738 13.3235 8.13949 13.3183C8.4416 13.3132 8.7336 13.4271 8.95236 13.6356C9.81093 14.4803 10.9679 14.9526 12.1724 14.95C13.4259 14.95 14.5609 14.4498 15.3924 13.6356ZM8.14736 6.9C8.60486 6.9 9.04362 7.08174 9.36712 7.40524C9.69062 7.72874 9.87236 8.1675 9.87236 8.625C9.87236 9.0825 9.69062 9.52126 9.36712 9.84476C9.04362 10.1683 8.60486 10.35 8.14736 10.35C7.68986 10.35 7.2511 10.1683 6.9276 9.84476C6.6041 9.52126 6.42236 9.0825 6.42236 8.625C6.42236 8.1675 6.6041 7.72874 6.9276 7.40524C7.2511 7.08174 7.68986 6.9 8.14736 6.9ZM16.1974 6.9C16.6549 6.9 17.0936 7.08174 17.4171 7.40524C17.7406 7.72874 17.9224 8.1675 17.9224 8.625C17.9224 9.0825 17.7406 9.52126 17.4171 9.84476C17.0936 10.1683 16.6549 10.35 16.1974 10.35C15.7399 10.35 15.3011 10.1683 14.9776 9.84476C14.6541 9.52126 14.4724 9.0825 14.4724 8.625C14.4724 8.1675 14.6541 7.72874 14.9776 7.40524C15.3011 7.08174 15.7399 6.9 16.1974 6.9Z" fill="white"/>
</svg>
