<svg width="17" height="17" viewBox="0 0 17 17" fill="none" xmlns="http://www.w3.org/2000/svg">
<path fill-rule="evenodd" clip-rule="evenodd" d="M4.75368 3.99943C4.75368 3.08064 5.11866 2.19949 5.76834 1.54982C6.41801 0.900141 7.29916 0.535156 8.21795 0.535156C9.13673 0.535156 10.0179 0.900141 10.6676 1.54982C11.3172 2.19949 11.6822 3.08064 11.6822 3.99943C11.6822 4.91821 11.3172 5.79936 10.6676 6.44903C10.0179 7.09871 9.13673 7.46369 8.21795 7.46369C7.29916 7.46369 6.41801 7.09871 5.76834 6.44903C5.11866 5.79936 4.75368 4.91821 4.75368 3.99943ZM4.75368 9.19583C3.6052 9.19583 2.50376 9.65206 1.69167 10.4642C0.87957 11.2763 0.42334 12.3777 0.42334 13.5262C0.42334 14.2153 0.697078 14.8761 1.18434 15.3634C1.67159 15.8506 2.33246 16.1244 3.02154 16.1244H13.4143C14.1034 16.1244 14.7643 15.8506 15.2516 15.3634C15.7388 14.8761 16.0126 14.2153 16.0126 13.5262C16.0126 12.3777 15.5563 11.2763 14.7442 10.4642C13.9321 9.65206 12.8307 9.19583 11.6822 9.19583H4.75368Z" fill="white"/>
</svg>
