<svg width="20" height="20" viewBox="0 0 20 20" fill="none" xmlns="http://www.w3.org/2000/svg">
<path d="M15.1844 14.2442L19.0921 18.151L17.8011 19.442L13.8943 15.5343C12.4407 16.6996 10.6326 17.3334 8.7695 17.3307C4.23681 17.3307 0.558105 13.652 0.558105 9.11935C0.558105 4.58666 4.23681 0.907959 8.7695 0.907959C13.3022 0.907959 16.9809 4.58666 16.9809 9.11935C16.9835 10.9824 16.3497 12.7905 15.1844 14.2442ZM13.3542 13.5672C14.5119 12.3763 15.1585 10.7802 15.1561 9.11935C15.1561 5.59119 12.2977 2.73271 8.7695 2.73271C5.24133 2.73271 2.38286 5.59119 2.38286 9.11935C2.38286 12.6475 5.24133 15.506 8.7695 15.506C10.4304 15.5083 12.0264 14.8617 13.2173 13.704L13.3542 13.5672Z" fill="white"/>
</svg>
