<svg width="18" height="23" viewBox="0 0 18 23" fill="none" xmlns="http://www.w3.org/2000/svg">
<path d="M8.93353 0C9.89968 0 10.8263 0.382612 11.5094 1.06367C12.1926 1.74472 12.5764 2.66842 12.5764 3.63158V10.8947C12.5764 11.8579 12.1926 12.7816 11.5094 13.4627C10.8263 14.1437 9.89968 14.5263 8.93353 14.5263C7.96739 14.5263 7.04081 14.1437 6.35764 13.4627C5.67447 12.7816 5.29068 11.8579 5.29068 10.8947V3.63158C5.29068 2.66842 5.67447 1.74472 6.35764 1.06367C7.04081 0.382612 7.96739 0 8.93353 0ZM17.4335 10.8947C17.4335 15.1679 14.2642 18.6905 10.1478 19.2837V23H7.71925V19.2837C3.60282 18.6905 0.433533 15.1679 0.433533 10.8947H2.8621C2.8621 12.5 3.50177 14.0395 4.64038 15.1746C5.779 16.3097 7.32329 16.9474 8.93353 16.9474C10.5438 16.9474 12.0881 16.3097 13.2267 15.1746C14.3653 14.0395 15.005 12.5 15.005 10.8947H17.4335Z" fill="white"/>
</svg>
