<svg width="14" height="14" viewBox="0 0 14 14" fill="none" xmlns="http://www.w3.org/2000/svg">
<path fill-rule="evenodd" clip-rule="evenodd" d="M8.02832 2.62071C8.32548 2.71248 8.60953 2.83047 8.88048 2.97469L10.082 2.25363C10.2073 2.17848 10.3541 2.14734 10.4991 2.16516C10.6441 2.18297 10.779 2.24872 10.8824 2.35195L11.5497 3.01926C11.6529 3.12263 11.7187 3.25753 11.7365 3.40254C11.7543 3.54755 11.7232 3.69435 11.648 3.81963L10.927 5.02118C11.0712 5.29212 11.1892 5.57618 11.2809 5.87334L12.6398 6.21355C12.7816 6.24906 12.9074 6.33092 12.9973 6.44612C13.0872 6.56132 13.136 6.70326 13.136 6.84939V7.79201C13.136 7.93814 13.0872 8.08008 12.9973 8.19528C12.9074 8.31049 12.7816 8.39234 12.6398 8.42785L11.2809 8.76806C11.1892 9.06522 11.0712 9.34928 10.927 9.62022L11.648 10.8218C11.7232 10.9471 11.7543 11.0939 11.7365 11.2389C11.7187 11.3839 11.6529 11.5188 11.5497 11.6221L10.8824 12.2894C10.779 12.3927 10.6441 12.4584 10.4991 12.4762C10.3541 12.4941 10.2073 12.4629 10.082 12.3878L8.88048 11.6667C8.60953 11.8109 8.32548 11.9289 8.02832 12.0207L7.68811 13.3796C7.6526 13.5213 7.57074 13.6471 7.45554 13.737C7.34034 13.8269 7.1984 13.8758 7.05226 13.8758H6.10964C5.96351 13.8758 5.82157 13.8269 5.70637 13.737C5.59117 13.6471 5.50931 13.5213 5.4738 13.3796L5.13359 12.0207C4.83907 11.9297 4.55376 11.8112 4.28143 11.6667L3.07989 12.3878C2.9546 12.4629 2.8078 12.4941 2.66279 12.4762C2.51779 12.4584 2.38289 12.3927 2.27951 12.2894L1.61221 11.6221C1.50897 11.5188 1.44322 11.3839 1.42541 11.2389C1.4076 11.0939 1.43873 10.9471 1.51388 10.8218L2.23494 9.62022C2.09049 9.34789 1.97198 9.06258 1.88097 8.76806L0.522098 8.42785C0.380456 8.39237 0.254716 8.31061 0.164822 8.19554C0.0749286 8.08047 0.0260288 7.93869 0.0258789 7.79267V6.85005C0.0258827 6.70391 0.0747156 6.56197 0.164621 6.44677C0.254526 6.33157 0.380347 6.24971 0.522098 6.2142L1.88097 5.874C1.97274 5.57683 2.09073 5.29278 2.23494 5.02184L1.51388 3.82029C1.43873 3.695 1.4076 3.5482 1.42541 3.40319C1.44322 3.25819 1.50897 3.12329 1.61221 3.01992L2.27951 2.35195C2.38289 2.24872 2.51779 2.18297 2.66279 2.16516C2.8078 2.14734 2.9546 2.17848 3.07989 2.25363L4.28143 2.97469C4.55238 2.83047 4.83643 2.71248 5.13359 2.62071L5.4738 1.26184C5.50928 1.1202 5.59104 0.994462 5.70611 0.904568C5.82118 0.814675 5.96297 0.765775 6.10899 0.765625H7.05161C7.19774 0.765629 7.33968 0.814462 7.45488 0.904367C7.57008 0.994272 7.65194 1.12009 7.68745 1.26184L8.02832 2.62071ZM6.58095 9.94273C7.27636 9.94273 7.94328 9.66648 8.43501 9.17476C8.92674 8.68303 9.20298 8.01611 9.20298 7.3207C9.20298 6.6253 8.92674 5.95837 8.43501 5.46665C7.94328 4.97492 7.27636 4.69867 6.58095 4.69867C5.88555 4.69867 5.21863 4.97492 4.7269 5.46665C4.23517 5.95837 3.95892 6.6253 3.95892 7.3207C3.95892 8.01611 4.23517 8.68303 4.7269 9.17476C5.21863 9.66648 5.88555 9.94273 6.58095 9.94273Z" fill="white"/>
</svg>
