<svg width="10" height="11" viewBox="0 0 10 11" fill="none" xmlns="http://www.w3.org/2000/svg">
<path opacity="0.75" d="M8.34143 3.07837V9.07317C8.34143 9.29666 8.41715 9.48413 8.5686 9.63558C8.72005 9.78703 8.90725 9.86249 9.13022 9.86196C9.35318 9.86144 9.54039 9.78571 9.69183 9.63479C9.84328 9.48387 9.91901 9.29666 9.91901 9.07317V1.18527C9.91901 0.961784 9.84328 0.774578 9.69183 0.623656C9.54039 0.472734 9.35318 0.39701 9.13022 0.396484H1.24232C1.01883 0.396484 0.831359 0.472208 0.679912 0.623656C0.528464 0.775104 0.453003 0.96231 0.453528 1.18527C0.454054 1.40824 0.529778 1.59571 0.6807 1.74768C0.831622 1.89965 1.01883 1.97512 1.24232 1.97406H7.23712L0.216892 8.99429C0.0722809 9.1389 -2.57492e-05 9.32296 -2.57492e-05 9.54645C-2.57492e-05 9.76994 0.0722809 9.95399 0.216892 10.0986C0.361504 10.2432 0.545553 10.3155 0.769044 10.3155C0.992535 10.3155 1.17659 10.2432 1.3212 10.0986L8.34143 3.07837Z" fill="black"/>
</svg>
