<svg width="12" height="20" viewBox="0 0 12 20" fill="none" xmlns="http://www.w3.org/2000/svg">
<path d="M0 3.96133C0 2.74986 -5.96046e-08 2.14413 0.218 1.68118C0.409744 1.27414 0.715693 0.943205 1.092 0.735803C1.52 0.5 2.08 0.5 3.2 0.5H8.8C9.92 0.5 10.48 0.5 10.908 0.735803C11.2843 0.943205 11.5903 1.27414 11.782 1.68118C12 2.14413 12 2.74986 12 3.96133V18.3529C12 18.8786 12 19.1414 11.899 19.2853C11.8554 19.3478 11.7997 19.3994 11.7358 19.4364C11.6719 19.4734 11.6013 19.4949 11.529 19.4994C11.362 19.5103 11.16 19.3642 10.756 19.0733L6 15.6433L1.244 19.0722C0.84 19.3642 0.638 19.5103 0.47 19.4994C0.397836 19.4947 0.327477 19.4731 0.263772 19.4362C0.200068 19.3992 0.144535 19.3477 0.101 19.2853C-1.71363e-07 19.1414 0 18.8786 0 18.3529V3.96133Z" fill="white"/>
</svg>
