<svg width="26" height="25" viewBox="0 0 26 25" fill="none" xmlns="http://www.w3.org/2000/svg">
<path fill-rule="evenodd" clip-rule="evenodd" d="M0.599976 12.5C0.599976 5.59625 6.19623 0 13.1 0C20.0037 0 25.6 5.59625 25.6 12.5C25.6 19.4037 20.0037 25 13.1 25C6.19623 25 0.599976 19.4037 0.599976 12.5ZM13.1 7.5C13.1 7.16848 12.9683 6.85054 12.7339 6.61612C12.4994 6.3817 12.1815 6.25 11.85 6.25C11.5185 6.25 11.2005 6.3817 10.9661 6.61612C10.7317 6.85054 10.6 7.16848 10.6 7.5V13.75C10.6 14.0815 10.7317 14.3995 10.9661 14.6339C11.2005 14.8683 11.5185 15 11.85 15H18.1C18.4315 15 18.7494 14.8683 18.9839 14.6339C19.2183 14.3995 19.35 14.0815 19.35 13.75C19.35 13.4185 19.2183 13.1005 18.9839 12.8661C18.7494 12.6317 18.4315 12.5 18.1 12.5H13.1V7.5Z" fill="white"/>
</svg>
