<svg width="23" height="29" viewBox="0 0 23 29" fill="none" xmlns="http://www.w3.org/2000/svg">
<path d="M22.4747 13.4923C22.4815 14.0109 22.3726 14.5246 22.1557 14.9967C21.9279 15.4962 21.5785 15.9294 21.138 16.2604L6.48069 27.5585C5.9647 27.9482 5.34935 28.1878 4.70358 28.2505H4.35424C3.82625 28.2507 3.30573 28.127 2.83534 27.8895C2.26456 27.6119 1.78153 27.1846 1.43875 26.6541C1.09598 26.1237 0.906585 25.5103 0.891155 24.8807V3.81894C0.888007 3.19724 1.06172 2.58723 1.39239 2.05878C1.71239 1.53037 2.17077 1.09757 2.71895 0.80623C3.26712 0.514893 3.88467 0.375882 4.50613 0.403932C5.13191 0.43402 5.73947 0.626584 6.26805 0.960562L20.9406 10.649C21.3871 10.9558 21.7608 11.356 22.0342 11.8224C22.3228 12.3339 22.4747 12.9071 22.4747 13.4923Z" fill="white" fill-opacity="0.6"/>
</svg>
