<svg width="31" height="41" viewBox="0 0 31 41" fill="none" xmlns="http://www.w3.org/2000/svg">
<path fill-rule="evenodd" clip-rule="evenodd" d="M4.78571 10.8005C4.78211 8.17272 5.73161 5.63405 7.45589 3.66119C9.18017 1.68833 11.5606 0.417007 14.1502 0.08596C16.7398 -0.245087 19.3603 0.386919 21.5197 1.86329C23.6791 3.33967 25.2289 5.55884 25.8779 8.10407C26.0199 8.65815 25.9375 9.24635 25.6488 9.73928C25.3601 10.2322 24.8886 10.5895 24.3382 10.7325C23.7878 10.8755 23.2035 10.7926 22.7138 10.5019C22.2241 10.2113 21.8692 9.7367 21.7271 9.18262C21.3381 7.65509 20.4083 6.32313 19.1126 5.43696C17.8168 4.5508 16.2442 4.1714 14.6901 4.37006C13.1361 4.56872 11.7076 5.33176 10.673 6.51583C9.63837 7.6999 9.06886 9.22352 9.07143 10.8005V17.2718H27.0714C28.9571 17.2718 30.5 18.8249 30.5 20.7232V35.8229C30.5 38.6703 28.1857 41 25.3571 41H5.64286C2.81429 41 0.5 38.6703 0.5 35.8229V20.7232C0.5 18.8249 2.04286 17.2718 3.92857 17.2718H4.78571V10.8005ZM15.5 22.1253C14.6479 22.1244 13.8208 22.4157 13.1551 22.9512C12.4894 23.4867 12.0248 24.2344 11.8376 25.0713C11.6505 25.9081 11.7521 26.7842 12.1257 27.5552C12.4992 28.3261 13.1225 28.946 13.8929 29.3128V34.5287C13.8929 34.9577 14.0622 35.3692 14.3636 35.6726C14.665 35.9761 15.0738 36.1465 15.5 36.1465C15.9262 36.1465 16.335 35.9761 16.6364 35.6726C16.9378 35.3692 17.1071 34.9577 17.1071 34.5287V29.3128C17.8775 28.946 18.5007 28.3261 18.8743 27.5552C19.2479 26.7842 19.3495 25.9081 19.1624 25.0713C18.9752 24.2344 18.5106 23.4867 17.8449 22.9512C17.1792 22.4157 16.3521 22.1244 15.5 22.1253Z" fill="white"/>
</svg>
