<svg width="12" height="13" viewBox="0 0 12 13" fill="none" xmlns="http://www.w3.org/2000/svg">
<path d="M11.1743 12.2203C9.80869 12.2203 8.45944 11.9227 7.12657 11.3275C5.7937 10.7323 4.58102 9.8882 3.4885 8.79525C2.39599 7.7023 1.55213 6.48961 0.956933 5.15719C0.361732 3.82476 0.0639136 2.4755 0.0634766 1.10943C0.0634766 0.912773 0.129027 0.748896 0.260129 0.617795C0.39123 0.486693 0.555107 0.421143 0.75176 0.421143H3.40657C3.55952 0.421143 3.69608 0.473146 3.81626 0.577153C3.93643 0.681161 4.00745 0.803959 4.0293 0.945549L4.45538 3.23983C4.47723 3.41463 4.47177 3.56212 4.43899 3.68229C4.40621 3.80247 4.34613 3.90626 4.25872 3.99366L2.66912 5.59965C2.88762 6.00388 3.14698 6.39435 3.44721 6.77104C3.74743 7.14774 4.07802 7.51111 4.43899 7.86115C4.77767 8.19983 5.13274 8.51404 5.50419 8.80377C5.87564 9.09351 6.26895 9.35833 6.6841 9.59825L8.22455 8.05781C8.32287 7.95948 8.45135 7.88584 8.60998 7.8369C8.76862 7.78795 8.92419 7.77419 9.07671 7.7956L11.3382 8.25446C11.4912 8.29816 11.6168 8.37747 11.7151 8.49241C11.8134 8.60734 11.8626 8.7356 11.8626 8.87719V11.532C11.8626 11.7286 11.7971 11.8925 11.666 12.0236C11.5349 12.1547 11.371 12.2203 11.1743 12.2203Z" fill="white"/>
</svg>
