<svg width="26" height="25" viewBox="0 0 26 25" fill="none" xmlns="http://www.w3.org/2000/svg">
<path d="M2.8277 25C2.06382 25 1.41011 24.7554 0.866593 24.2662C0.323075 23.7771 0.0508527 23.1883 0.0499268 22.5V5C0.0499268 4.3125 0.322149 3.72417 0.866593 3.235C1.41104 2.74583 2.06474 2.50083 2.8277 2.5H8.66104C8.96196 1.75 9.46567 1.14583 10.1721 0.6875C10.8786 0.229167 11.6712 0 12.5499 0C13.4286 0 14.2217 0.229167 14.9291 0.6875C15.6365 1.14583 16.1397 1.75 16.4388 2.5H22.2721C23.036 2.5 23.6902 2.745 24.2346 3.235C24.7791 3.725 25.0508 4.31333 25.0499 5V22.5C25.0499 23.1875 24.7782 23.7762 24.2346 24.2662C23.6911 24.7562 23.037 25.0008 22.2721 25H2.8277ZM5.60548 20H15.3277V17.5H5.60548V20ZM5.60548 15H19.4944V12.5H5.60548V15ZM5.60548 10H19.4944V7.5H5.60548V10ZM12.5499 4.0625C12.8509 4.0625 13.0999 3.97375 13.2971 3.79625C13.4944 3.61875 13.5925 3.395 13.5916 3.125C13.5907 2.855 13.4921 2.63125 13.2958 2.45375C13.0995 2.27625 12.8509 2.1875 12.5499 2.1875C12.249 2.1875 12.0004 2.27625 11.8041 2.45375C11.6078 2.63125 11.5092 2.855 11.5083 3.125C11.5073 3.395 11.6059 3.61917 11.8041 3.7975C12.0022 3.97583 12.2509 4.06417 12.5499 4.0625Z" fill="white"/>
</svg>
