<svg width="18" height="19" viewBox="0 0 18 19" fill="none" xmlns="http://www.w3.org/2000/svg">
<path fill-rule="evenodd" clip-rule="evenodd" d="M8.66105 0.666504C9.65899 0.666504 10.5975 0.929291 11.4052 1.39007C11.5145 1.44633 11.6111 1.52376 11.6892 1.61771C11.7673 1.71166 11.8253 1.82019 11.8597 1.93676C11.894 2.05333 11.9041 2.17553 11.8892 2.29602C11.8743 2.41651 11.8348 2.5328 11.7731 2.63788C11.7114 2.74296 11.6286 2.83468 11.53 2.9075C11.4313 2.98032 11.3186 3.03274 11.1988 3.06162C11.079 3.0905 10.9544 3.09523 10.8327 3.07553C10.711 3.05583 10.5946 3.01211 10.4905 2.94699C9.93412 2.63097 9.30301 2.46463 8.66061 2.46471C8.01821 2.46478 7.38715 2.63126 6.83089 2.94742C6.27462 3.26357 5.81277 3.71825 5.49177 4.26573C5.17076 4.81321 5.00193 5.43419 5.00223 6.06623L15.064 6.06713C15.5492 6.06713 16.0145 6.25677 16.3576 6.59432C16.7006 6.93186 16.8934 7.38968 16.8934 7.86705V16.8666C16.8934 17.344 16.7006 17.8018 16.3576 18.1393C16.0145 18.4769 15.5492 18.6665 15.064 18.6665H2.25812C1.77293 18.6665 1.30761 18.4769 0.964532 18.1393C0.621451 17.8018 0.428711 17.344 0.428711 16.8666V7.86614C0.428711 7.38878 0.621451 6.93096 0.964532 6.59342C1.30761 6.25587 1.77293 6.06623 2.25812 6.06623H3.17282C3.17282 4.63414 3.75104 3.26069 4.78029 2.24805C5.80953 1.2354 7.20548 0.666504 8.66105 0.666504ZM8.66105 9.66605C8.25834 9.66607 7.8669 9.79682 7.54742 10.038C7.22794 10.2792 6.99828 10.6174 6.89406 11.0001C6.78983 11.3828 6.81686 11.7887 6.97095 12.1547C7.12505 12.5208 7.3976 12.8266 7.74634 13.0247V14.1658C7.74634 14.4045 7.84271 14.6334 8.01425 14.8022C8.18579 14.971 8.41845 15.0658 8.66105 15.0658C8.90364 15.0658 9.1363 14.971 9.30784 14.8022C9.47938 14.6334 9.57575 14.4045 9.57575 14.1658V13.0247C9.92449 12.8266 10.197 12.5208 10.3511 12.1547C10.5052 11.7887 10.5323 11.3828 10.428 11.0001C10.3238 10.6174 10.0941 10.2792 9.77467 10.038C9.45519 9.79682 9.06375 9.66607 8.66105 9.66605ZM15.9037 3.38527L16.7873 3.61926C17.0126 3.68865 17.2019 3.84105 17.3156 4.0446C17.4293 4.24815 17.4586 4.48707 17.3974 4.7114C17.3362 4.93573 17.1893 5.12809 16.9872 5.24826C16.7852 5.36843 16.5438 5.40709 16.3135 5.35617L15.4308 5.12398C15.1974 5.0614 14.9988 4.91044 14.8783 4.70412C14.7578 4.49781 14.7252 4.25294 14.7877 4.02307C14.8502 3.7932 15.0028 3.59705 15.2119 3.47752C15.421 3.358 15.6697 3.32483 15.9037 3.38527ZM14.7283 0.7475C14.8443 0.778097 14.9531 0.830886 15.0484 0.902852C15.1437 0.974817 15.2237 1.06455 15.2837 1.16692C15.3438 1.2693 15.3827 1.38231 15.3984 1.4995C15.4141 1.6167 15.4061 1.73578 15.375 1.84994L15.257 2.28372C15.2264 2.39837 15.1731 2.50595 15.1001 2.60026C15.0271 2.69458 14.9359 2.77378 14.8317 2.83332C14.7275 2.89286 14.6124 2.93157 14.493 2.94722C14.3736 2.96287 14.2522 2.95515 14.1358 2.92451C14.0194 2.89386 13.9103 2.8409 13.8148 2.76866C13.7193 2.69642 13.6392 2.60633 13.5792 2.50355C13.5192 2.40078 13.4804 2.28735 13.465 2.16978C13.4497 2.05221 13.4581 1.93281 13.4898 1.81845L13.6087 1.38377C13.6715 1.15338 13.8247 0.956961 14.0346 0.837656C14.2446 0.718351 14.4941 0.685923 14.7283 0.7475Z" fill="white"/>
</svg>
