<svg width="16" height="15" viewBox="0 0 16 15" fill="none" xmlns="http://www.w3.org/2000/svg">
<path d="M0.491593 7.36666C0.491593 6.92973 0.857187 6.56413 1.2852 6.56413H7.05446V0.803791C7.05446 0.375778 7.41114 0.0101834 7.84807 0.0101834C8.285 0.0101834 8.65059 0.375778 8.65059 0.803791V6.56413H14.4109C14.8389 6.56413 15.2045 6.92973 15.2045 7.36666C15.2045 7.80359 14.8389 8.16027 14.4109 8.16027H8.65059V13.9295C8.65059 14.3575 8.285 14.7231 7.84807 14.7231C7.41114 14.7231 7.05446 14.3575 7.05446 13.9295V8.16027H1.2852C0.857187 8.16027 0.491593 7.80359 0.491593 7.36666Z" fill="white"/>
</svg>
