<svg width="14" height="8" viewBox="0 0 14 8" fill="none" xmlns="http://www.w3.org/2000/svg">
<path d="M7.10931 7.91592C6.92411 7.91592 6.76027 7.84469 6.62493 7.70935L1.11158 2.06778C0.990487 1.93956 0.919255 1.78285 0.919255 1.60477C0.919255 1.23437 1.19706 0.949439 1.56747 0.949439C1.75267 0.949439 1.9165 1.02067 2.03047 1.13464L7.10931 6.32033L12.181 1.13464C12.3021 1.02067 12.466 0.949439 12.644 0.949439C13.0144 0.949439 13.2922 1.23437 13.2922 1.60477C13.2922 1.78285 13.221 1.93956 13.0999 2.06066L7.58656 7.70935C7.46547 7.84469 7.28739 7.91592 7.10931 7.91592Z" fill="white"/>
</svg>
