<svg width="19" height="19" viewBox="0 0 19 19" fill="none" xmlns="http://www.w3.org/2000/svg">
<path d="M9.47998 5.91087C8.05327 5.91087 6.86732 4.72492 6.86732 3.29821C6.86732 1.86258 8.05327 0.703381 9.47998 0.694464C10.8978 0.685547 12.0837 1.86258 12.0837 3.29821C12.0837 4.72492 10.8978 5.91087 9.47998 5.91087ZM16.0428 5.91087C14.6161 5.91087 13.448 4.72492 13.448 3.29821C13.448 1.86258 14.6161 0.703381 16.0428 0.694464C17.4785 0.685547 18.6466 1.86258 18.6466 3.29821C18.6466 4.72492 17.4785 5.91087 16.0428 5.91087ZM2.9082 5.90196C1.47257 5.90196 0.30445 4.72492 0.30445 3.30713C0.30445 1.88042 1.47257 0.694464 2.9082 0.694464C4.33491 0.694464 5.50303 1.88042 5.50303 3.30713C5.50303 4.72492 4.33491 5.90196 2.9082 5.90196ZM16.0428 4.62683C16.7919 4.62683 17.3804 4.03832 17.3804 3.29821C17.3804 2.54919 16.7919 1.96067 16.0428 1.96067C15.2938 1.96067 14.7321 2.54919 14.7321 3.29821C14.7321 4.03832 15.2938 4.62683 16.0428 4.62683ZM2.9082 4.58225C3.63047 4.58225 4.20115 4.01157 4.20115 3.29821C4.20115 2.57594 3.63047 1.99634 2.9082 1.99634C2.17701 1.99634 1.61524 2.57594 1.61524 3.29821C1.61524 4.01157 2.17701 4.58225 2.9082 4.58225ZM9.47998 4.58225C10.2112 4.58225 10.7819 4.01157 10.764 3.29821C10.7551 2.57594 10.2112 1.99634 9.47998 1.99634C8.74879 1.99634 8.18702 2.57594 8.18702 3.29821C8.18702 4.01157 8.74879 4.58225 9.47998 4.58225ZM16.0428 12.0457C14.6161 12.0457 13.448 10.8598 13.448 9.44198C13.448 8.01527 14.6161 6.85607 16.0428 6.84715C17.4785 6.83823 18.6466 8.01527 18.6466 9.44198C18.6466 10.8598 17.4785 12.0457 16.0428 12.0457ZM9.47998 12.0457C8.05327 12.0457 6.86732 10.8598 6.86732 9.44198C6.86732 8.01527 8.05327 6.85607 9.47998 6.84715C10.8978 6.83823 12.0837 8.01527 12.0837 9.44198C12.0837 10.8598 10.8978 12.0457 9.47998 12.0457ZM2.9082 12.0457C1.47257 12.0457 0.30445 10.8598 0.30445 9.44198C0.30445 8.01527 1.47257 6.85607 2.9082 6.84715C4.33491 6.83823 5.50303 8.01527 5.50303 9.44198C5.50303 10.8598 4.33491 12.0457 2.9082 12.0457ZM2.9082 10.7706C3.65722 10.7706 4.2279 10.1821 4.2279 9.43306C4.2279 8.69296 3.65722 8.09552 2.9082 8.09552C2.15917 8.09552 1.57957 8.69296 1.57957 9.43306C1.57957 10.1821 2.15917 10.7706 2.9082 10.7706ZM9.47998 10.7706C10.229 10.7706 10.8086 10.1821 10.8086 9.43306C10.8086 8.69296 10.229 8.09552 9.47998 8.09552C8.73096 8.09552 8.14244 8.69296 8.14244 9.43306C8.14244 10.1821 8.73096 10.7706 9.47998 10.7706ZM16.0428 10.7706C16.7919 10.7706 17.3804 10.1821 17.3804 9.43306C17.3804 8.69296 16.7919 8.09552 16.0428 8.09552C15.2938 8.09552 14.7321 8.69296 14.7321 9.43306C14.7321 10.1821 15.2938 10.7706 16.0428 10.7706ZM2.9082 18.1895C1.47257 18.1895 0.30445 17.0035 0.30445 15.5858C0.30445 14.1501 1.47257 12.982 2.9082 12.982C4.33491 12.982 5.50303 14.1501 5.50303 15.5858C5.50303 17.0035 4.33491 18.1895 2.9082 18.1895ZM9.47998 18.1895C8.05327 18.1895 6.86732 17.0035 6.86732 15.5858C6.86732 14.1501 8.05327 12.982 9.47998 12.982C10.8978 12.982 12.0837 14.1501 12.0837 15.5858C12.0837 17.0035 10.8978 18.1895 9.47998 18.1895ZM16.0428 18.1895C14.6161 18.1895 13.448 17.0035 13.448 15.5858C13.448 14.1501 14.6161 12.982 16.0428 12.982C17.4785 12.982 18.6466 14.1501 18.6466 15.5858C18.6466 17.0035 17.4785 18.1895 16.0428 18.1895ZM2.9082 16.9144C3.65722 16.9144 4.2279 16.3259 4.2279 15.5768C4.2279 14.8367 3.65722 14.2393 2.9082 14.2393C2.15917 14.2393 1.57957 14.8367 1.57957 15.5768C1.57957 16.3259 2.15917 16.9144 2.9082 16.9144ZM9.47998 16.9144C10.229 16.9144 10.8086 16.3259 10.8086 15.5768C10.8086 14.8367 10.229 14.2393 9.47998 14.2393C8.73096 14.2393 8.14244 14.8367 8.14244 15.5768C8.14244 16.3259 8.73096 16.9144 9.47998 16.9144ZM16.0428 16.9144C16.7919 16.9144 17.3804 16.3259 17.3804 15.5768C17.3804 14.8367 16.7919 14.2393 16.0428 14.2393C15.2938 14.2393 14.7321 14.8367 14.7321 15.5768C14.7321 16.3259 15.2938 16.9144 16.0428 16.9144Z" fill="white"/>
</svg>
