<svg width="25" height="25" viewBox="0 0 25 25" fill="none" xmlns="http://www.w3.org/2000/svg">
<path d="M12.353 24.1685C10.7046 24.1685 9.15771 23.856 7.7124 23.231C6.26709 22.6138 4.99756 21.7583 3.90381 20.6646C2.81006 19.5708 1.95068 18.3013 1.32568 16.856C0.708496 15.4106 0.399902 13.8638 0.399902 12.2153C0.399902 10.5669 0.708496 9.02002 1.32568 7.57471C1.95068 6.12939 2.81006 4.85986 3.90381 3.76611C4.99756 2.66455 6.26709 1.80518 7.7124 1.18799C9.15771 0.570801 10.7046 0.262207 12.353 0.262207C14.0015 0.262207 15.5483 0.570801 16.9937 1.18799C18.439 1.80518 19.7085 2.66455 20.8022 3.76611C21.896 4.85986 22.7515 6.12939 23.3687 7.57471C23.9937 9.02002 24.3062 10.5669 24.3062 12.2153C24.3062 13.8638 23.9937 15.4106 23.3687 16.856C22.7515 18.3013 21.896 19.5708 20.8022 20.6646C19.7085 21.7583 18.439 22.6138 16.9937 23.231C15.5483 23.856 14.0015 24.1685 12.353 24.1685ZM12.353 22.1763C13.728 22.1763 15.0171 21.9185 16.2202 21.4028C17.4233 20.8872 18.4819 20.1724 19.396 19.2583C20.3101 18.3442 21.0249 17.2856 21.5405 16.0825C22.0562 14.8794 22.314 13.5903 22.314 12.2153C22.314 10.8403 22.0562 9.55127 21.5405 8.34814C21.0249 7.13721 20.3101 6.07861 19.396 5.17236C18.4819 4.2583 17.4233 3.54346 16.2202 3.02783C15.0171 2.51221 13.728 2.25439 12.353 2.25439C10.978 2.25439 9.68896 2.51221 8.48584 3.02783C7.28271 3.54346 6.22412 4.2583 5.31006 5.17236C4.396 6.07861 3.68115 7.13721 3.16553 8.34814C2.6499 9.55127 2.39209 10.8403 2.39209 12.2153C2.39209 13.5903 2.6499 14.8794 3.16553 16.0825C3.68115 17.2856 4.396 18.3442 5.31006 19.2583C6.22412 20.1724 7.28271 20.8872 8.48584 21.4028C9.68896 21.9185 10.978 22.1763 12.353 22.1763ZM10.1616 16.7974C9.98193 16.9067 9.80225 16.9536 9.62256 16.938C9.44287 16.9224 9.29053 16.8599 9.16553 16.7505C9.04834 16.6333 8.98975 16.481 8.98975 16.2935V8.14893C8.98975 7.96143 9.05225 7.81299 9.17725 7.70361C9.30225 7.59424 9.45459 7.53564 9.63428 7.52783C9.82178 7.51221 9.99756 7.55127 10.1616 7.64502L16.8413 11.606C16.9976 11.6997 17.103 11.8286 17.1577 11.9927C17.2124 12.1489 17.2124 12.3091 17.1577 12.4731C17.1108 12.6294 17.0054 12.7583 16.8413 12.8599L10.1616 16.7974Z" fill="white"/>
</svg>
