<svg width="22" height="28" viewBox="0 0 22 28" fill="none" xmlns="http://www.w3.org/2000/svg">
<path d="M4.25537 27.3325C3.02881 27.3325 2.10693 27.0278 1.48975 26.4185C0.880371 25.8169 0.575684 24.9106 0.575684 23.6997V10.4106C0.575684 9.19971 0.880371 8.29346 1.48975 7.69189C2.10693 7.08252 3.02881 6.77783 4.25537 6.77783H17.4507C18.6694 6.77783 19.5874 7.08252 20.2046 7.69189C20.8218 8.29346 21.1304 9.19971 21.1304 10.4106V23.6997C21.1304 24.9028 20.8374 25.8091 20.2515 26.4185C19.6655 27.0278 18.8491 27.3325 17.8022 27.3325H4.25537ZM4.27881 25.4458H17.7671C18.1733 25.4458 18.521 25.2896 18.8101 24.9771C19.0991 24.6646 19.2437 24.2036 19.2437 23.5942V10.5044C19.2437 9.90283 19.0835 9.4458 18.7632 9.1333C18.4429 8.8208 17.9937 8.66455 17.4155 8.66455H4.27881C3.69287 8.66455 3.24365 8.8208 2.93115 9.1333C2.61865 9.4458 2.4624 9.90283 2.4624 10.5044V23.5942C2.4624 24.2036 2.61865 24.6646 2.93115 24.9771C3.24365 25.2896 3.69287 25.4458 4.27881 25.4458ZM3.13037 4.89111C3.21631 4.35986 3.3999 3.95361 3.68115 3.67236C3.9624 3.3833 4.396 3.23877 4.98193 3.23877H16.7124C17.2983 3.23877 17.7319 3.3833 18.0132 3.67236C18.2944 3.95361 18.478 4.35986 18.564 4.89111H3.13037ZM5.16943 1.64502C5.20068 1.14502 5.35693 0.77002 5.63818 0.52002C5.92725 0.262207 6.34131 0.133301 6.88037 0.133301H14.814C15.353 0.133301 15.7632 0.262207 16.0444 0.52002C16.3335 0.77002 16.4976 1.14502 16.5366 1.64502H5.16943Z" fill="white"/>
</svg>
